<?xml version="1.0" encoding="UTF-8"?>
<svg id="Layer_1" xmlns="http://www.w3.org/2000/svg" version="1.1" viewBox="0 0 808.6 274.5">
  <!-- Generator: Adobe Illustrator 29.0.0, SVG Export Plug-In . SVG Version: 2.1.0 Build 186)  -->
  <defs>
    <style>
      .st0 {
        fill: #fbb15f;
      }

      .st1 {
        fill: #af7639;
      }

      .st2 {
        fill: #fbb161;
      }

      .st3 {
        font-family: MerriweatherSans-ExtraBold, 'Merriweather Sans';
        font-size: 53.7px;
        font-weight: 700;
        letter-spacing: 0em;
      }

      .st3, .st4 {
        fill: #fff;
      }

      .st5 {
        fill: #af763a;
      }

      .st6 {
        display: none;
      }
    </style>
  </defs>
  <g>
    <polygon class="st1" points="0 175 48.2 117.3 0 71.1 143.9 53.9 143.9 157.9 0 175"/>
    <polygon class="st2" points="69.4 75.5 704.6 0 704.6 104 69.4 179.5 69.4 75.5"/>
  </g>
  <g>
    <polygon class="st5" points="-.3 175.3 47.9 117.6 -.3 71.3 143.6 54.2 143.6 158.2 -.3 175.3"/>
    <polygon class="st0" points="69.1 179.8 69.1 75.8 704.3 .3 704.3 .3 704.3 104.3 69.1 179.8"/>
    <g class="st6">
      <path class="st4" d="M117.4,143.3l-1.3-4.2c1.3-.9,2.7-2.1,4.2-3.6,1.5-1.4,3.1-3,4.6-4.8s3-3.6,4.3-5.6,2.3-4,3.1-6c.8-2.1,1.2-4.1,1.2-6s-.5-3.6-1.5-4.6-2.3-1.3-4.1-1.1c-1.7.2-3.3.7-4.9,1.4-1.6.8-2.8,1.7-3.7,2.7l-3-5.2c.7-.9,1.7-1.8,2.9-2.8,1.2-1,2.7-2,4.6-2.8,1.8-.8,3.9-1.4,6.4-1.7,3.2-.4,5.8,0,7.7,1,1.9,1,3.3,2.5,4.1,4.5s1.3,4.1,1.3,6.4-.7,5.7-2,8.5-3.1,5.4-5.4,8.1c-2.3,2.6-4.9,5.1-7.7,7.5l16.5-3.1v8.2l-27.3,3.2Z"/>
      <path class="st4" d="M162.4,138.4c-2.9.3-5.3,0-7.4-1-2.1-1-3.7-2.4-5-4.4s-2.3-4.2-2.9-6.8c-.6-2.6-.9-5.4-.9-8.3.1-4.3.8-8.1,2.3-11.4s3.5-6,6-8,5.3-3.2,8.4-3.6c2.9-.3,5.4,0,7.4.8s3.7,2.3,5,4.1c1.3,1.8,2.2,4,2.8,6.5s.9,5.2.9,8.1c0,4.4-.8,8.4-2.2,11.8-1.5,3.4-3.4,6.2-5.9,8.3-2.6,2.3-5.4,3.5-8.5,3.9ZM162.6,131.2c2-.2,3.6-1.6,4.7-4,1.1-2.4,1.6-6.1,1.6-11.2s-.2-5.6-.7-7.7-1.1-3.7-2.1-4.7c-.9-1-2.1-1.5-3.4-1.3-2,.2-3.6,1.5-4.7,3.8-1.1,2.3-1.6,5.8-1.6,10.4s.2,5.8.7,8c.5,2.3,1.1,4,2.1,5.1.8,1.2,2,1.7,3.4,1.6Z"/>
      <path class="st4" d="M181.7,135.6l-1.3-4.2c1.3-.9,2.7-2.1,4.2-3.6,1.5-1.4,3.1-3,4.6-4.8,1.6-1.8,3-3.6,4.3-5.6s2.3-4,3.1-6c.8-2.1,1.2-4.1,1.2-6s-.5-3.6-1.5-4.6-2.3-1.3-4.1-1.1c-1.7.2-3.3.7-4.9,1.4-1.6.8-2.8,1.7-3.7,2.7l-3-5.2c.7-.9,1.7-1.8,2.9-2.8s2.7-2,4.6-2.8c1.8-.8,3.9-1.4,6.4-1.7,3.2-.4,5.8,0,7.7,1,1.9,1,3.3,2.5,4.1,4.5s1.3,4.1,1.3,6.4-.7,5.7-2,8.5-3.1,5.5-5.4,8.1c-2.3,2.6-4.9,5.1-7.7,7.5l16.5-3.1v8.2l-27.3,3.2Z"/>
      <path class="st4" d="M217.4,131.4v-31.7c-1,.4-2,.7-3,1s-2,.6-3,.9l-.8-6.2c.8-.3,1.8-.8,3-1.3,1.1-.6,2.3-1.2,3.4-1.9,1.2-.7,2.2-1.4,3.2-2.1s1.8-1.4,2.3-1.9h4.8c0,0-.1,42.2-.1,42.2l-9.8,1Z"/>
      <path class="st4" d="M242.1,128.5v-42.4l3.9-.5c1.8-.2,3.6-.5,5.4-.9,1.8-.4,3.7-.7,5.7-.9,3.2-.4,5.9-.2,8.1.5,2.3.7,4,2.1,5.2,4.1s1.8,4.9,1.8,8.6-1.4,9.1-4.1,12.1c-2.8,3.1-6.8,4.9-12,5.5-1,0-1.8.2-2.5.3-.6,0-1.1,0-1.6.2v12.3l-9.9,1.1ZM252,107.2c.6,0,1.2,0,1.8,0,.7,0,1.4,0,2.2-.2,1.2,0,2.3-.5,3.3-1.2,1-.6,1.8-1.6,2.3-2.8s.9-2.9.9-4.9-.5-4.1-1.6-5.3c-1.1-1.3-2.8-1.7-5.1-1.3-.6,0-1.2.2-1.9.3-.7,0-1.3.3-1.9.4v15.1h0Z"/>
      <path class="st4" d="M287.4,123.5c-2.7.3-5,0-6.9-.5-1.9-.7-3.4-1.7-4.6-3.2-1.1-1.4-2-3.2-2.5-5.1-.5-2-.8-4.1-.7-6.4.1-3.4.7-6.3,2-8.8s3.1-4.4,5.4-5.9,4.9-2.4,7.8-2.7c3.6-.4,6.5,0,8.7,1.3s3.7,3.2,4.6,5.6c.9,2.5,1.4,5.2,1.3,8.3,0,3.4-.7,6.4-2,8.8-1.3,2.5-3.1,4.5-5.4,5.9-2.2,1.5-4.8,2.4-7.7,2.7ZM287.6,116.4c1.9-.2,3.2-1.1,3.9-2.7.7-1.6,1.1-3.9,1.1-6.9s-.1-3.3-.5-4.6c-.3-1.4-.8-2.5-1.5-3.2-.7-.8-1.7-1.1-2.9-.9-1.9.2-3.3,1.1-4,2.7-.8,1.6-1.1,3.8-1.1,6.7s.2,3.3.5,4.7c.3,1.4.8,2.5,1.5,3.3s1.7,1,3,.9Z"/>
      <path class="st4" d="M305.1,121v-31.8l8.4-1,.5,5.6.7.8v25.3l-9.6,1.1ZM314.1,101.2l-.4-7.4c.4-1.2.9-2.3,1.8-3.3.8-1,1.8-1.9,3-2.5,1.2-.7,2.4-1.1,3.8-1.2.4,0,.8,0,1.3,0s.7,0,.9,0v10.2c-.2,0-.6-.3-1.1-.4s-1.2,0-2.1,0c-1.4.2-2.6.5-3.6,1.1s-1.7,1.2-2.3,1.8-1,1.2-1.3,1.7Z"/>
      <path class="st4" d="M336.8,117.7c-2.1.3-3.8,0-5.1-.5-1.3-.6-2.2-1.7-2.7-3.1-.6-1.5-.8-3.4-.8-5.7v-15.2l-3.4.4v-5.5c1.3-.6,2.4-1.1,3.2-1.6.8-.5,1.5-1.3,1.9-2.2.2-.5.4-1,.6-1.6s.5-1.3.7-2,.5-1.4.7-2l5.8-.7v7.2l7.6-.9v6.8l-7.6.9v11.3c0,2,.1,3.4.3,4.3.2.9.6,1.4,1,1.6.5.2,1.2.2,2,0,.4,0,.9-.2,1.5-.4.6-.2,1.1-.4,1.6-.7.5-.3.9-.5,1.2-.7l1.1,5.6c-.5.5-1.2,1.1-2.2,1.8-1,.6-2.2,1.2-3.5,1.7-1.1.6-2.5.9-3.9,1.1Z"/>
      <path class="st4" d="M354.2,94.1c0-3.9.5-7.3,1.6-10.2,1-2.9,2.5-5.3,4.3-7.3,1.9-2,4-3.5,6.5-4.6s5.1-1.8,8-2.2c1.9-.2,3.5-.3,4.8-.3s2.5,0,3.5.3c1,0,2,.2,3,.3l-.3,8.9c-1-.4-2.4-.8-4.1-1.1s-3.9-.2-6.5,0c-2.3.3-4.2,1-5.8,2.2-1.6,1.2-2.8,2.8-3.7,4.8s-1.3,4.4-1.3,7,.3,5.1,1,7.2,1.7,3.6,3.1,4.7c1.3,1.1,3,1.5,5,1.3,1.4-.2,2.5-.4,3.4-.6.9-.3,1.7-.6,2.3-.9v-8.6l1,1.1-6.6.3v-7.5l14.6-1.7v21.4c-.8,0-1.5.4-2.3.7-.8.4-1.7.8-2.8,1.3-1,.5-2.3,1-3.8,1.4-1.5.5-3.4.8-5.6,1.1-3.9.5-7.3,0-10.2-1.3-2.9-1.4-5.1-3.5-6.7-6.6-1.6-2.9-2.4-6.7-2.4-11.2Z"/>
      <path class="st4" d="M405.2,109.5c-4.8.6-8.4-.5-10.9-3.1s-3.8-6.5-3.8-11.7.6-5.9,1.7-8.5c1.2-2.6,2.8-4.7,5-6.4s4.9-2.7,8-3.1c1.6-.2,3.1-.2,4.6,0s2.8.7,3.9,1.6c1.2.8,2.1,2,2.8,3.6.7,1.6,1.1,3.7,1.1,6.2s0,2.2-.1,3.3c-.1,1-.1,1.9-.2,2.6l-21.9,2.6.5-5.2,12.8-1.5c.1-1.6,0-2.8-.2-3.8s-.6-1.7-1.2-2.2c-.6-.4-1.3-.6-2.3-.5-1.1,0-2.1.6-2.8,1.3s-1.3,1.9-1.7,3.6c-.4,1.6-.6,3.9-.5,6.7,0,1.8.3,3.3.9,4.4s1.4,1.8,2.5,2.2c1.1.4,2.4.5,3.9.3,1,0,2-.3,3-.6,1-.3,2-.6,2.9-.9s1.6-.7,2.1-1l1.5,5.3c-.7.6-1.6,1.3-2.7,2-1.2.7-2.5,1.2-4,1.8-1.5.5-3.1.8-4.9,1Z"/>
      <path class="st4" d="M433.5,106.2c-2.7.3-5,0-6.9-.5-1.9-.7-3.4-1.7-4.6-3.2-1.1-1.4-2-3.2-2.5-5.1-.5-2-.8-4.1-.7-6.4.1-3.4.7-6.3,2-8.8s3.1-4.4,5.4-5.9,4.9-2.4,7.8-2.7c3.6-.4,6.5,0,8.7,1.3s3.7,3.2,4.6,5.6c.9,2.5,1.4,5.2,1.3,8.3,0,3.4-.7,6.4-2,8.8-1.3,2.5-3.1,4.5-5.4,5.9-2.1,1.4-4.7,2.3-7.7,2.7ZM433.8,99c1.9-.2,3.2-1.1,3.9-2.7.7-1.6,1.1-3.9,1.1-6.9s-.1-3.3-.5-4.6c-.3-1.4-.8-2.5-1.5-3.2-.7-.8-1.7-1.1-2.9-.9-1.9.2-3.3,1.1-4,2.7-.8,1.6-1.1,3.8-1.1,6.7s.2,3.3.5,4.7c.3,1.4.8,2.5,1.5,3.3.7.7,1.7,1,3,.9Z"/>
      <path class="st4" d="M464.3,116.4c-5.2.6-9,0-11.2-1.3-2.3-1.5-3.4-3.6-3.4-6.6s.2-2.1.7-3,1.2-1.8,2.1-2.5c.9-.8,2.1-1.4,3.4-1.9l5.1-.3c-.2.2-.5.6-.9,1s-.7,1-.9,1.6c-.3.6-.4,1.4-.4,2.3s.2,1.9.5,2.7c.3.9.9,1.5,1.8,2s2.1.6,3.8.4c1.3-.2,2.4-.4,3.5-.9,1-.4,1.8-1,2.4-1.8s.9-1.7.9-2.8-.1-1.5-.4-2.2c-.3-.6-.8-1.1-1.6-1.4-.8-.3-2-.3-3.6-.2l-6.4.8c-.4,0-.8,0-1.1,0-.3,0-.7-.2-1.1-.2-.4,0-.7,0-.8-.2-.1,0-.4,0-.8,0-1.3,0-2.3-.5-3-1s-1-1.5-1-2.7.1-1.5.4-2.4c.2-.9.7-1.7,1.4-2.6s1.8-1.6,3.2-2.3l5.1.2c-.8.4-1.3.9-1.6,1.5-.3.6-.5,1.2-.5,1.7,0,.8.3,1.3.8,1.5.6.2,1.5.3,2.9,0l5.3-.6c2.3-.3,4.2-.3,5.7,0s2.7.8,3.6,1.4c.9.7,1.5,1.5,1.9,2.5s.6,2,.6,3.2c0,2.1-.5,4-1.4,5.7s-2.1,3.1-3.7,4.3c-1.6,1.2-3.3,2.2-5.3,2.9-1.9.6-3.9,1.1-6,1.3ZM463.7,91.4c-2.6.3-4.9.2-6.9-.4s-3.5-1.6-4.6-3c-1.1-1.5-1.6-3.3-1.6-5.6s.5-4.3,1.6-6.1c1.1-1.8,2.6-3.2,4.5-4.3,1.9-1.1,4.3-1.8,7-2.1,2.8-.3,5.1-.2,7.1.4s3.5,1.7,4.6,3.1c1.1,1.5,1.6,3.3,1.6,5.6s-.5,4.3-1.4,6c-1,1.7-2.4,3.1-4.4,4.2-2,1.2-4.5,1.9-7.5,2.2ZM463.8,86.1c1.4-.2,2.5-.6,3.3-1.4s1.3-2.3,1.3-4.4-.4-2.9-1.1-3.6-1.9-1-3.3-.8c-.9,0-1.7.3-2.3.7-.6.4-1.1.9-1.4,1.7-.3.7-.4,1.8-.4,3s.3,2.7.9,3.7c.4.8,1.5,1.2,3,1.1ZM473.4,76.3l-1-4.2c.3-.5,1-1.2,2-2s2.3-1.3,3.8-1.5l3.8-.5v7.1l-8.6,1.1Z"/>
      <path class="st4" d="M483.6,99.7v-31.8l8.4-1,.5,5.6.7.8v25.3l-9.6,1.1ZM492.6,80l-.4-7.4c.4-1.2.9-2.3,1.8-3.3.8-1,1.8-1.9,3-2.5,1.2-.7,2.4-1.1,3.8-1.2.4,0,.8,0,1.3,0s.7,0,.9,0v10.2c-.2,0-.6-.3-1.1-.4s-1.2,0-2.1,0c-1.4.2-2.6.5-3.6,1.1s-1.7,1.2-2.3,1.8c-.5.6-1,1.2-1.3,1.7Z"/>
      <path class="st4" d="M513.9,96.6c-1.9.2-3.6,0-5.1-.7-1.4-.7-2.5-1.8-3.3-3.2-.8-1.4-1.2-3.1-1.2-5.1s.5-3.5,1.4-5,2.2-2.7,3.9-3.6c1.2-.7,2.5-1.3,3.9-1.7,1.4-.4,2.8-.8,4.2-1.1,1.4-.3,2.7-.5,4-.6l1.4,1.7-1.4,3.3c-.6,0-1.3.2-1.9.4-.7.2-1.3.4-1.9.6-.6.2-1,.4-1.4.6-.5.3-1.1.7-1.5,1.3-.5.5-.7,1.4-.7,2.5s.4,2.5,1.2,3.1,1.6.8,2.6.7c.5,0,1-.2,1.5-.4.5-.2.9-.4,1.3-.7.4-.2.7-.5.8-.7l1.5,1.9-1.1,2.6c-.8.9-1.9,1.7-3.2,2.5-1.4.8-3,1.4-5,1.6ZM531.1,94.1l-9.1,1.1v-4.7h-.5c0,0,0-16.8,0-16.8,0-1.4-.4-2.3-1.1-2.6-.7-.4-1.7-.5-3.1-.3-1.1,0-2.3.4-3.5.7-1.2.3-2.4.7-3.6,1.2-1.1.5-2.2,1-3,1.5l-2-5.8c.7-.6,1.8-1.2,3.1-1.9,1.4-.7,2.9-1.3,4.6-1.9,1.7-.6,3.5-1,5.2-1.2,3.1-.4,5.6-.3,7.4.3,1.9.6,3.2,1.7,4.1,3.3.8,1.7,1.3,3.9,1.3,6.9v20.2s.2,0,.2,0Z"/>
      <path class="st4" d="M536.3,107.6v-45.9l9.1-1.1v3.9l.5.6v26c0,0,0,5.1,0,5.1v10.2l-9.6,1.2ZM550.6,92.2c-1.7.2-3.2.2-4.3,0-1.1-.3-1.8-.5-2.1-.7l1.6-6.7c.4.4.9.6,1.6.7.7,0,1.5,0,2.4,0,1.1,0,2.1-.6,3-1.5s1.5-2.1,2-3.6.8-3.4.8-5.5c0-3.1-.4-5.1-1.3-6.2-.9-1.1-2.1-1.5-3.6-1.3-1,0-1.9.4-2.8.8-.9.4-1.6.9-2.1,1.4l-1-5.2c.4-.5,1-1.1,1.7-1.9s1.7-1.4,2.9-2,2.7-1,4.4-1.2c2.1-.2,4,0,5.8.9,1.8.9,3.2,2.4,4.3,4.5,1.1,2.1,1.6,4.9,1.6,8.3s-.6,6.8-1.9,9.5c-1.3,2.8-3,5-5.3,6.7-2,1.8-4.7,2.8-7.7,3.1Z"/>
      <path class="st4" d="M569,89.6v-46.4l9.6-1.1v11.9l-.5,7.2-.3-.8c.6-.7,1.4-1.4,2.4-2.1,1-.7,2.1-1.4,3.3-2s2.5-.9,3.8-1.1c3.2-.5,5.6.2,7.1,2.1,1.5,1.8,2.3,4.9,2.3,9.2v19.9l-9.6,1.1v-18.2c0-2.4-.3-4-.9-4.7-.6-.7-1.6-1-2.8-.8-.6,0-1.4.3-2.3.7-.9.4-1.7,1-2.4,1.9v22.1l-9.7,1.1Z"/>
      <path class="st4" d="M614.4,84.7c-4.8.6-8.4-.5-10.9-3.1s-3.8-6.5-3.8-11.7.6-5.9,1.7-8.5c1.2-2.6,2.8-4.7,5-6.4s4.9-2.7,8-3.1c1.6-.2,3.1-.2,4.6,0s2.8.7,3.9,1.6c1.2.8,2.1,2,2.8,3.6s1.1,3.7,1.1,6.2,0,2.2,0,3.3c0,1,0,1.9-.2,2.6l-21.9,2.6.5-5.2,12.8-1.5c0-1.6,0-2.8-.2-3.8s-.6-1.7-1.2-2.2c-.6-.4-1.3-.6-2.3-.5-1.1,0-2.1.6-2.8,1.3s-1.3,1.9-1.7,3.6c-.4,1.6-.6,3.9-.5,6.7,0,1.8.3,3.3.9,4.4.6,1.1,1.4,1.8,2.5,2.2,1.1.4,2.4.5,3.9.3,1,0,2-.3,3-.6,1-.3,2-.6,2.9-.9.9-.4,1.6-.7,2.1-1l1.5,5.3c-.7.6-1.6,1.3-2.7,2-1.2.7-2.5,1.2-4,1.8-1.5.4-3.2.7-4.9,1Z"/>
    </g>
    <text class="st3" transform="translate(114.4 143.6) rotate(-6.8) scale(1 1.1) skewX(-7.2)"><tspan x="0" y="0">Port Geographe</tspan></text>
  </g>
</svg>