<svg xmlns="http://www.w3.org/2000/svg" viewBox="600 160 380 240">
  <style>
    .yellow { fill: #FBAF5D; }
    .boat { fill: #1A2F5A; }
    .boat-light { fill: #175EA7; }
    .boat-highlight { fill: #FFFFFF; }
  </style>
  <g>
    <polygon
      class="yellow"
      points="885.632,309.3232 895.555,310.7563 732.89,321.3823 845.899,326.6953 777.409,334.6653 
		806.518,339.9783 748.3,345.2913 818.269,348.1103 817.5099,349.1923 775.697,353.2613 803.45,360.8932 768.848,374.5132 
		776.0999,381.4203 763.733,391.0132 747.288,378.0623 751.726,373.1842 732.89,366.5432 787.6819,362.5583 729.466,354.5893 
		734.603,351.9323 708.513,346.7183 710.238,343.9603 738.06,339.4843 691.7969,335.9933 780.8339,329.3523 675.567,322.4553 
		726.0419,317.3972 616.269,310.7563 "
    ></polygon>
    <polygon
      class="yellow"
      points="920.2028,326.6936 870.7177,323.7686 894.3117,319.9286 957.7518,321.7976 "
    ></polygon>
    <polygon
      class="yellow"
      points="658.4308,329.498 644.4927,325.6371 698.3008,329.2261 "
    ></polygon>
    <rect
      x="678.0407"
      y="182.9998"
      class="boat"
      width="73.981"
      height="44.313"
    ></rect>
    <path
      class="boat-light"
      d="M897.0358,244.4067c-1.9561,8.397-5.6841,20.691-12.6271,32.711H628.9838l6.184-32.711H897.0358z"
    ></path>
    <path
      class="boat"
      d="M847.5944,310.3072c17.5249-6.976,29.1329-19.912,36.808-33.187h-255.415l-0.073,0.385l22.202,32.802H847.5944
			z"
    ></path>
    <path
      class="boat-light"
      d="M884.6696,226.3635c-0.255-0.113-0.5371-0.177-0.833-0.177h-22.598h-0.3921h-22.599
			c-0.2959,0-0.5769,0.064-0.8319,0.177c-0.769,0.327-1.312,1.105-1.312,2.017v16.113h4.23v-13.943h10.494v13.943h4.229v-13.943
			h5.7899h0.3921h5.7899v13.943h4.229v-13.943h10.494v13.943h4.23v-16.113C885.9815,227.4686,885.4385,226.6906,884.6696,226.3635
			L884.6696,226.3635z"
    ></path>
    <path
      class="yellow"
      d="M766.6467,293.7838c0,4.655-3.7731,8.429-8.4291,8.429c-4.655,0-8.429-3.774-8.429-8.429
			s3.7739-8.429,8.429-8.429C762.8736,285.3548,766.6467,289.1288,766.6467,293.7838L766.6467,293.7838z"
    ></path>
    <path
      class="yellow"
      d="M795.5627,293.7838c0,4.655-3.7731,8.429-8.4291,8.429c-4.655,0-8.428-3.774-8.428-8.429
			s3.7729-8.429,8.428-8.429C791.7896,285.3548,795.5627,289.1288,795.5627,293.7838L795.5627,293.7838z"
    ></path>
    <path
      class="yellow"
      d="M823.7277,293.7838c0,4.655-3.7731,8.429-8.4281,8.429c-4.656,0-8.429-3.774-8.429-8.429
			s3.7729-8.429,8.429-8.429C819.9547,285.3548,823.7277,289.1288,823.7277,293.7838L823.7277,293.7838z"
    ></path>
    <polygon
      class="boat"
      points="831.2595,244.5864 660.0145,244.5864 668.6894,220.9274 670.7514,215.2944 672.1994,211.3515 
			726.6714,211.3515 726.6714,192.5765 798.8074,192.5765 802.5594,198.5864 808.4114,207.9715 812.9794,215.2944 816.4954,220.9274 
			"
    ></polygon>
    <polygon
      class="yellow"
      points="816.4953,220.9275 668.6893,220.9275 670.7513,215.2945 812.9792,215.2945 "
    ></polygon>
    <path
      class="boat-light"
      d="M795.5056,175.2009h-134.394c0,9.781,7.929,17.71,17.71,17.71h134.3931
			C813.2145,183.13,805.2864,175.2009,795.5056,175.2009L795.5056,175.2009z"
    ></path>
    <rect
      x="679.7296"
      y="225.8118"
      class="yellow"
      width="12.675"
      height="14.928"
    ></rect>
    <rect
      x="709.0926"
      y="225.8118"
      class="yellow"
      width="12.675"
      height="14.928"
    ></rect>
    <rect
      x="738.4545"
      y="225.8118"
      class="yellow"
      width="12.675"
      height="14.928"
    ></rect>
    <rect
      x="767.8166"
      y="225.8118"
      class="yellow"
      width="12.675"
      height="14.928"
    ></rect>
    <rect
      x="797.1796"
      y="225.8118"
      class="yellow"
      width="12.674"
      height="14.928"
    ></rect>
    <polygon
      class="yellow"
      points="808.4118,207.9717 745.9188,207.9717 738.4097,198.5867 802.5588,198.5867 "
    ></polygon>
    <path
      class="boat-highlight"
      d="M811.5759,185.865c-1.3771-3.01-3.2971-5.518-5.7631-7.11c-2.5081-1.606-5.233-2.188-8.422-2.033
			c-6.49,0.035-12.979,0.11-19.469,0.019l-38.936-0.522l-77.874-1.018l77.874-1.017l38.936-0.523
			c6.49-0.091,12.979-0.015,19.469,0.019c3.2581-0.175,7.28,0.63,9.944,3.068C810.0547,179.098,811.5969,182.5441,811.5759,185.865
			L811.5759,185.865z"
    ></path>
    <path
      class="boat-highlight"
      d="M885.9811,244.4939c-0.276-3.526-0.3961-7.052-0.5991-10.578l-0.173-5.289
			c0.0231-0.755-0.3059-1.191-0.7949-1.438c-0.3241-0.124-0.3661-0.127-0.8931-0.103l-1.322,0.041
			c-7.052,0.225-14.104,0.256-21.156,0.287c-7.053-0.027-14.105-0.06-21.157-0.282l-1.322-0.043c-0.527-0.023-0.568-0.021-0.891,0.104
			c-0.4879,0.246-0.8169,0.68-0.7939,1.434l-0.173,5.289c-0.204,3.526-0.324,7.052-0.6021,10.578
			c-0.2789-3.526-0.3979-7.052-0.6019-10.578l-0.1741-5.289c-0.136-1.006,0.442-2.415,1.5601-2.966
			c0.459-0.305,1.325-0.395,1.6759-0.376l1.322-0.043c7.052-0.222,14.104-0.255,21.157-0.282c7.052,0.031,14.104,0.062,21.156,0.287
			l1.322,0.042c0.3511-0.019,1.215,0.071,1.6741,0.376c1.1169,0.549,1.694,1.956,1.558,2.962l-0.173,5.289
			C886.3771,237.442,886.257,240.968,885.9811,244.4939L885.9811,244.4939z"
    ></path>
    <path
      class="boat-highlight"
      d="M635.1682,244.4067c21.8219-0.435,43.6449-0.691,65.4669-0.861c21.822-0.259,43.644-0.22,65.467-0.313
			c21.822-0.128,43.644,0.058,65.4659,0.089c21.823,0.007,43.645,0.326,65.467,0.512l0.734,0.006l-0.176,0.697
			c-2.869,11.412-7.1069,22.529-13.184,32.581c5.614-10.305,9.589-21.429,12.069-32.841l0.557,0.703
			c-21.822,0.186-43.644,0.505-65.467,0.512c-21.8219,0.031-43.6439,0.217-65.4659,0.089c-21.823-0.093-43.645-0.054-65.467-0.313
			C678.813,245.0967,656.9901,244.8418,635.1682,244.4067L635.1682,244.4067z"
    ></path>
  </g>
</svg>


