<?xml version="1.0" encoding="utf-8"?>
<!-- Generator: Adobe Illustrator 23.1.0, SVG Export Plug-In . SVG Version: 6.00 Build 0)  -->
<svg version="1.1" id="Layer_1" xmlns="http://www.w3.org/2000/svg" xmlns:xlink="http://www.w3.org/1999/xlink" x="0px" y="0px"
	 viewBox="0 0 2059.0942 229.246" style="enable-background:new 0 0 2059.0942 229.246;" xml:space="preserve">
<style type="text/css">
	.st0{fill:#02051a;}
</style>
<g>
	<path class="st0" d="M7.049,41.2251c-0.4037-0.8298-0.9769-1.6539-1.8164-2.4749C5.8387,39.6378,6.444,40.4499,7.049,41.2251z"/>
	<path class="st0" d="M98.6705,28.8024c1.2727-0.6679,2.5608-1.3201,3.8665-1.9544C101.1886,27.4078,99.9066,28.07,98.6705,28.8024z
		"/>
	<path class="st0" d="M250.366,35.923c-0.3308,1.2943-0.5887,2.6168-0.5135,4.0565
		C250.2382,38.7526,250.4281,37.4075,250.366,35.923z"/>
	<path class="st0" d="M2.364,41.2255c0.6051-0.7754,1.2107-1.5876,1.817-2.4754C3.3412,39.5712,2.7677,40.3954,2.364,41.2255z"/>
	<path class="st0" d="M58.4266,45.5596c0.7654-1.3303,1.605-2.6039,2.5223-3.7985C59.486,42.7127,58.8154,44.0717,58.4266,45.5596z"
		/>
	<path class="st0" d="M78.3966,21.376c2.6108-1.4192,5.1989-2.8004,7.6814-4.1819C83.5551,18.5159,80.9686,19.9018,78.3966,21.376z"
		/>
	<path class="st0" d="M26.9125,39.4586c0.34-0.5283,0.6606-1.0665,0.9465-1.6225C27.4271,38.2578,27.1495,38.8374,26.9125,39.4586z"
		/>
	<path class="st0" d="M1990.1157,21.379c-2.5737-1.4752-5.1619-2.8621-7.6868-4.1848
		C1984.9131,18.5767,1987.5032,19.9589,1990.1157,21.379z"/>
	<path class="st0" d="M1969.8367,28.8023c-1.2361-0.7322-2.5176-1.3944-3.8657-1.9541
		C1967.2761,27.4825,1968.5642,28.1345,1969.8367,28.8023z"/>
	<path class="st0" d="M2007.5579,41.7603c0.9175,1.1949,1.7573,2.4688,2.5229,3.7993
		C2009.6919,44.0713,2009.0212,42.712,2007.5579,41.7603z"/>
	<path class="st0" d="M1818.6545,39.9796c0.0752-1.4396-0.1829-2.7621-0.5137-4.0564
		C1818.0789,37.4078,1818.2688,38.7527,1818.6545,39.9796z"/>
	<path class="st0" d="M2041.5928,39.4534c-0.2366-0.6193-0.5137-1.1972-0.9441-1.6182
		C2040.9338,38.3897,2041.2537,38.9265,2041.5928,39.4534z"/>
	<path class="st0" d="M2058.7981,38.9592c-5.4844-7.4666-13.1006-13.6416-20.7173-18.845
		c7.1001,5.947,15.0396,11.8961,19.5337,20.7694c-0.0872,0.145-0.1743,0.2904-0.2615,0.4366
		c-0.0349-0.0386-0.062-0.0856-0.0994-0.122c0.0273,0.0527,0.0464,0.1133,0.0723,0.1672c-0.4353,0.7309-0.8708,1.4695-1.3064,2.2121
		c-2.489-3.8112-5.1477-7.449-8.3254-10.5553c1.2249,4.6737,5.9131,8.1512,6.3362,13.8842
		c-0.5068,0.8234-1.0134,1.6235-1.5195,2.3645c-0.303-0.8708-0.635-1.7558-0.9978-2.6417c-1.3579-5.351-6.145-10.03-10.918-13.527
		c4.8169,3.765,8.1089,9.0883,9.6785,14.5919c-0.8059-0.3832-1.6436-0.6286-2.4875-0.8181
		c-0.439-1.6459-1.1116-3.1494-2.3511-4.3608c0.5281,1.5255,0.8313,2.8314,1.106,4.1093c-0.022-0.004-0.0435-0.0081-0.0652-0.012
		c-1.3289-2.54-3.3247-4.7372-4.8828-7.1592c0.4211,1.1021,0.7097,2.3395,1.4763,3.0879c-2.394-2.3391-4.7861-4.679-7.1934-8.202
		c1.1331,4.3264,4.2119,6.6629,5.6736,10.6538c-0.2678-0.1866-0.5261-0.3987-0.7737-0.6401
		c-0.5549-0.8664-1.1199-1.7585-1.7085-2.647c-0.2468-0.6011-0.4678-1.2757-0.6528-2.0539c-0.1616,0.158-0.323,0.291-0.4844,0.4157
		c-1.2935-1.7845-2.7192-3.4198-4.4082-4.5185c1.5979,1.5621,2.4937,3.3665,3.1055,5.1997
		c-1.3867,0.4019-2.7625-0.1524-4.1357-0.9052c-1.6348-1.9712-3.2681-3.8163-4.8984-5.4105
		c0.8677,1.2705,1.5759,2.5447,2.1367,3.8741c-1.9277-0.9342-3.8623-1.2277-5.8281,1.2262
		c-1.3171-1.7974-2.668-3.5973-4.5918-5.0063c1.9863,1.6172,3.4146,3.3351,4.4883,5.1446
		c-0.9563,1.2404-1.9202,3.1491-2.8945,5.9531c-0.0037-0.0106-0.0068-0.0217-0.0105-0.0322
		c0.2366-2.8107-0.2366-5.4092-0.2019-8.5077c-0.0303,2.6825-0.0522,4.6912-0.0791,7.0443
		c-0.0022-0.0511-0.0105-0.098-0.0112-0.1501c-0.3184,1.3379-0.2559,2.5759-0.0359,3.7726
		c-0.0823,0.3638-0.1853,0.7358-0.3005,1.1128c-4.603-12.9855-17.6375-20.6846-30.1487-27.4856
		c13.2026,7.5674,26.0195,17.506,27.8743,33.5812c-0.0029,2.644-0.0859,5.221-0.168,7.646
		c-0.3232,9.702-0.5664,16.979-0.5664,16.979s-0.1328-2.269-0.3315-5.672c-0.1992-3.402-0.4653-7.94-0.73-12.477
		c-0.1924-5.571-1.4434-11.473-5.0591-17.35c2.1118,4.108,2.4214,8.2358,3.2883,12.3568c-0.96-3.7886-2.4077-7.5211-4.3425-10.8835
		c0.5615,2.1489,0.53,4.5692,1.4053,6.4397c0.2485,5.229,0.0049,10.504,0.0049,10.504s-0.5532-4.786-1.4751-9.539
		c-2.3643-2.921-2.4038-6.471-4.7979-8.81c0.812,0.7939,1.0906,2.1335,1.5564,3.2814c-2.5608-3.793-6.575-6.0986-8.7356-10.3004
		c2.4199,4.706,4.8271,8.229,6.5659,12.842c0.4302,6.394-0.125,12.874-0.125,12.874s-0.3369-1.807-0.9629-4.505
		c-1.8081-10.6021-8.9751-16.438-16.1538-23.457c1.7009,3.3079,3.9814,6.6093,6.03,9.9134c0.031,2.1946,0.1345,4.3892,1.2568,6.5716
		c-5.3865-10.4744-14.4856-17.1519-24.8132-22.5719c6.0972,3.6126,10.9551,9.1318,15.7512,14.7474
		c2.0352,4.0828,2.3462,8.948,3.2131,13.8075c-1.251-5.903-3.6841-11.792-8.4702-16.471c2.4199,4.706,4.8401,9.412,6.085,15.37
		c0.0322,3.872-0.1479,7.758-0.2849,10.672s-0.2278,4.857-0.2278,4.857s-0.2842-5.437-0.687-12.685
		c-2.5061-17.058-17.9951-26.35-31.0913-33.302c8.3501,5.823,19.0652,11.618,23.9062,21.031
		c-7.207-9.386-17.9231-15.182-27.4421-19.807c7.1531,4.652,16.6721,9.278,21.499,17.507c-5.9031,1.25-8.3499-5.822-14.2791-6.939
		c7.1392,3.47,9.5859,10.542,12.0332,17.615c-3.6162-5.876-9.6001-11.725-14.3862-16.405c2.4062,3.524,3.6301,7.06,4.854,10.596
		c-7.1809-7.019-15.5168-11.658-25.0369-16.284c5.9568,3.483,9.574,9.359,12.02,16.432c-4.759-2.313-8.3621-7.006-13.123-9.319
		c3.604,4.693,9.574,9.359,9.655,16.458c-4.8411-9.412-11.981-12.881-21.4871-16.324c2.4202,4.706,4.8269,8.229,4.8801,12.962
		c-3.5901-3.509-8.3621-7.005-11.9521-10.515c1.197,1.17,2.406,3.523,3.603,4.693c-4.76-2.313-8.3359-4.639-13.0959-6.952
		c5.9829,5.849,9.613,12.908,10.8909,21.178c-3.658-9.426-10.8369-16.445-20.3428-19.888c1.21,2.354,2.4058,3.523,3.6157,5.877
		c-4.7188,1.236-7.1389-3.47-10.7029-4.613c0.0281,2.3669,1.2239,3.5359,1.251,5.903c-3.5911-3.509-8.377-8.189-13.136-10.502
		c1.2361,4.72,7.1929,8.2029,7.26,14.119c-2.3938-2.34-4.7869-4.68-7.1941-8.202c0.0271,2.366,1.2241,3.5359,1.25,5.902
		c-2.4058-3.522-4.7988-5.862-7.2061-9.385c0.0142,1.183,1.2241,3.536,1.2373,4.719c-1.21-2.353-3.603-4.692-5.9961-7.032
		c-2.3271,3.576,4.7988,5.863,1.29,9.452c-2.4072-3.523-4.8-5.862-7.1931-8.202c0.04,3.55,0.094,8.283,0.134,11.832
		c-1.8091-2.937-3.0291-6.178-4.249-9.418c-1.22-3.241-2.4399-6.481-4.248-9.419c1.2231,3.536,1.8579,7.375,2.3452,11.215
		c0.4878,3.841,0.8269,7.683,1.459,11.226c-3.5762-2.326-5.9971-7.032-8.4031-10.556c0.054,4.733,0.094,8.283,0.147,13.016
		c-2.4001-2.931-3.623-6.467-4.8459-10.004c-1.2241-3.536-2.4482-7.072-4.863-10.001c1.252,4.717-1.061,9.477-1.0071,14.21
		c-4.1548-1.136-9.2-2.558-12.927-5.031c-2.6541-1.747-4.7534-4.003-5.6843-6.9636c-0.0525,1.0063-0.2629,2.0681-0.7456,3.2246
		c-0.52,4.041-1.1489,8.091-1.1489,8.091l-5.583-5.69c-1.2729-6.339-3.6931-11.045-8.4661-14.541
		c4.7729,3.496,3.657,9.426,3.71,14.159c-1.21-2.353-3.603-4.693-5.9958-7.033c0.04,3.55,0.0798,7.1-1.063,10.663
		c-1.1963-1.17-2.4062-3.523-3.603-4.693c-1.1572,2.38-1.1431,3.563-2.3003,5.943c-1.2759-8.269-7.2598-14.118-14.4128-18.77
		c5.9832,5.849,7.2869,16.484,6.198,24.78c-0.1211-10.649-9.627-14.091-15.6099-19.94c1.2229,3.536,2.4468,7.072,3.6699,10.609
		c-2.3931-2.34-4.7861-4.68-7.1802-7.02c2.4072,3.523,2.4609,8.256,3.1711,12.09c-0.5701,6.633-1.2859,13.3-1.2859,13.3
		s-0.8491-4.756-1.7141-9.51c-1.207-2.85-1.2471-6.4-2.457-8.753c0.0139,1.183,0.041,3.55,0.054,4.733
		c-3.5898-3.51-3.6699-10.609-9.6138-12.908c1.2239,3.536,2.4478,7.072,3.6709,10.608c-4.813-7.046-13.123-9.318-19.106-15.167
		c3.6157,5.876,3.6838,11.792,3.75,17.708c-2.4062-3.523-4.813-7.046-7.231-10.567c0.0518,3.548,0.0918,7.098,1.3159,10.634
		c-0.6182-2.36-2.1211-4.414-3.4771-6.617c-1.3569-2.203-2.5669-4.556-2.605-7.514c0.031,2.366,0.061,5.028,0.0908,7.69
		c0.0312,2.663,0.061,5.325,0.0872,7.691c-1.2629-7.086-4.866-11.778-6.1301-18.864c-1.1289,4.746,3.6572,9.425,0.1611,14.198
		c-2.3401,2.394-4.7202,1.237-5.916,0.068c-4.8-5.863-4.8809-12.962-6.1309-18.865c0.0669,5.916,1.3979,18.918-8.1091,15.476
		c-1.1829,0.013-1.2361-4.72-1.2629-7.086c-4.7202,1.237-7.0332,5.996-11.7061,6.342c-3.5879,2.11-7.105,4.521-10.615,8.111
		c-0.0261-2.366-1.2229-3.536-1.25-5.902c-1.1702,1.196-2.3259,3.576-3.4961,4.773c1.1431-3.563,2.2722-8.31,3.4141-11.875
		c-1.1541,2.382-3.4939,4.775-4.6511,7.155c1.1572-2.38,1.1172-5.929,1.0891-8.296c-2.325,3.577-4.666,5.97-6.991,9.546
		c1.1431-3.563,2.2849-7.126,3.428-10.689c-4.6921,3.604-6.991,9.547-12.8679,13.163c1.1431-3.563,1.0898-8.296,2.2329-11.859
		c-7.02,7.18-12.842,15.53-13.9041,26.192c-0.0808-7.099-0.175-15.382,3.2952-22.522c-3.5229,2.407-5.8491,5.984-8.1763,9.56
		c1.0903-8.296,8.1221-14.293,12.7881-20.262c-9.386,7.206-18.771,14.413-23.3828,25.116c-0.0271-2.367,1.1157-5.93-0.0942-8.283
		c-1.1968-1.17-4.7458-1.13-5.916,0.067c-1.1428,3.563-4.666,5.97-3.5359,10.476c-0.5691,5.59-0.9978,11.186-0.9978,11.186
		s-1.333-6.3539-2.4412-12.696c-1.2668-5.322,4.5681-12.489-2.585-17.141c-1.1301,4.746-7.0471,4.813-8.175,9.56
		c-0.0679-5.916,2.259-9.493,4.571-14.253c-4.6389,8.337-12.854,14.347-12.4751,23.218c-0.8591,5.417-1.7161,10.8329-1.7161,10.8329
		s-0.355-2.727-0.8867-6.818c-0.2661-2.045-0.5762-4.431-0.8931-6.989c-2.853-10.564,4.1389-20.11,12.3408-27.303
		c-7.032,5.996-17.6138,12.033-19.2051,24.206c-0.3569,2.969-0.5789,4.949-0.5789,4.949l-4.5859-4.458l-6.8501-8.507
		c0,0-1.4719,3.712-2.437,7.443c-0.8069,3.732-1.613,7.463-1.613,7.463s-0.7158-3.979-1.4299-7.96
		c-0.9348-2.592-0.9749-6.142-1.002-8.509c-1.156,2.381-2.2991,5.943-4.6389,8.337c-1.21-2.353-2.4082-3.5229-3.6172-5.876
		c-1.1567,2.38-1.1299,4.747-2.2859,7.126c-5.957-3.483-14.717,1.2-14.7439-1.166c-3.7383-16.525,6.4438-29.256,18.7109-38.906
		c-13.2271,5.492-20.8271,14.229-26.7842,31.455c-1.1099,7.383-1.3879,12.759-1.3879,12.759s-0.9089-4.241-1.677-8.553
		c-0.25-4.382,0.2251-8.753,0.2251-8.753l-3.717,13.237l-1.5811-12.652l-3.105,8.619l-0.0439-6.482c0,0-1.6521,4.094-2.7471,8.146
		c-0.8108,4.002-1.584,7.99-1.584,7.99l-1.0881-9.575c0,0-0.9119,4.482-1.7139,8.938c-0.803,4.455-1.605,8.91-1.605,8.91
		l-1.6021-10.889c-0.7788-5.446-0.9629-10.948-0.9629-10.948l-4.187,8.583l-3.3901-12.309l-4.8091,13.328l-3.627-5.346
		l-5.4707,0.062l-1.853,7.174l-2.4263-9.83l-2.3638,7.369c0,0-0.6631-3.909-0.9272-7.835c-0.1899-1.947,0.9531-5.51,0.9263-7.877
		c-3.5103,3.59-5.8362,7.167-9.8291,11.192l-3.7241,6.914c0,0-1.3589-6.338-1.6189-12.729c-0.21-5.202,4.4822-8.805,4.429-13.538
		c-2.313,4.759-8.1758,9.559-9.2969,15.208c-1.6321,7.214-2.4082,14.381-2.4082,14.381l-2.8079-12.477
		c-5.4412-2.686-11.3982-6.169-12.8821,2.97c-1.5649,3.3979-3.0381,6.795-3.0381,6.795s-0.8298-3.66-1.4438-7.349
		c0.1182-2.601,0.0898-4.968,0.064-7.334c-3.4429,9.506-14.1318,6.077-22.4019,7.354c-1.1702,1.197-2.312,4.7599-4.665,5.97
		c-0.0811-7.1-0.1611-14.199,3.3208-20.155c-4.6919,3.603-6.9917,9.546-9.4688,14.688l-6.9912,8.5366l-1.3193-0.015l-2.7397-8.3667
		l-1.437,8.3194l-0.2795-0.0032c-0.1394-2.1653-0.3523-7.1279,0.1829-12.1242c2.0059-4.891,4.332-8.468,6.6438-13.228
		c-5.835,7.167-11.657,15.517-13.408,25.215c-0.0029,0.0218-0.0054,0.0408-0.0081,0.0625l-1.2363-0.014
		c-0.3176-2.6445-0.6501-6.1218-0.7336-9.6085c1.3091-4.845,3.6221-9.605,5.9351-14.364c-4.6938,3.603-7.0059,8.363-10.26,12.649
		c-1.928,4.553-3.2046,9.0843-3.7593,11.2236l-0.821-0.0093l-3.0657-7.8463c0,0-0.8596,3.5611-1.542,7.7941l-6.4915-0.0736
		c-0.0847-0.2482-0.1694-0.496-0.2544-0.7445c-0.8203-4.936-3.2402-9.642-0.9272-14.402c-2.3398,2.393-4.6799,4.786-7.02,7.18
		c1.0271-3.1987,1.1172-5.4406,1.9507-8.4422c-1.4907,4.4059-5.5112,8.8998-5.6587,14.1472
		c-0.0789,0.7107-0.1558,1.4193-0.2314,2.1239l-2.2024-0.025c-0.0967-3.976,0.0779-7.3049,0.0779-7.3049l-1.6187,7.2875
		l-2.3557-0.0267l-1.6526-7.1968c0,0-1.0833,3.3661-2.0012,7.1554l-3.323-0.0377c-0.2981-3.7439-0.3467-7.0537-0.3467-7.0537
		s-0.6729,3.0609-1.3745,7.0342l-4.2412-0.0481c-0.0298-0.3949-0.0601-0.7896-0.0884-1.1851
		c-0.5981-6.16,0.5049-13.273,1.6211-19.203c-2.313,4.7599-3.4431,9.506-6.9521,13.097c-0.0679-5.917-0.1338-11.833,2.166-17.776
		c-3.4971,4.773-4.6128,10.703-6.957,16.325c-0.7788,3.0182-1.3867,6.0305-1.8706,8.6052l-2.6252-0.0298
		c-0.3787-2.0288-0.7905-4.3007-1.178-6.5785c0.9448-5.172-1.4609-8.6949-1.5151-13.428c-2.312,4.76-2.2588,9.493-4.5718,14.252
		c-1.2241-3.536-1.25-5.902-1.9331-9.426l-3.655,12.284c0,0-0.916-4.241-1.7771-8.483c-0.853-4.241-1.6138-8.484-1.6138-8.484
		s-1.562,6.277-2.9111,12.552c-0.5239,2.4926-1.0461,4.9783-1.4871,7.0776l-3.7887-0.0429l-3.9954-8.3477l-2.7412,8.2714
		l-3.7866-0.0429l-0.8433-5.7875l-1.5298,4.898l-4.0151-4.835c0,0-0.3291-5.731-0.7671-13.372
		c-0.438-7.641-8.407,18.557-8.407,18.557l-0.7122,0.3552l-9.6936-0.1099l-5.4753-19.1384l-2.6018,14.0211l-2.1868,5.0011
		l-8.3921-0.0951l-4.1963-11.3881l-12.751,6.794l-5.4868,0.062l-7.3481-3.786l-13.3394,7.8296l-5.5974-0.0634l-2.9221-9.7722
		l-3.5571,6.163l-11.9023,3.6158l-8.1414,0.126l-3.4612-6.1208l-10.7549,1.828l-11.6641-3.213l-2.7012,7.9481l-4.3328,0.067
		l-0.9363-3.6401l-2.0784,3.6868l-6.3901,0.0988l-7.4915-3.6046l-0.698,3.7313l-4.0823,0.0632l-1.8857-7.9034l-3.6321,7.9888
		l-8.0447,0.1245l-6.6973-3.3063l-9.1338,1.688l-4.0361-11.135l-3.1108,12.532l-2.521-12.306l-4.1216,12.9856l-4.5818,0.0709
		l-12.6877-4.3251l-2.1118-21.0846l-1.9658,19.6945l-6.2056-2.1153l-10.6221,1.1471L1023.631,50.13l-6.2058,2.1157l-1.9656-19.6945
		l-2.1125,21.0849l-12.6829,4.3239l-4.5864-0.071l-4.1218-12.985l-2.521,12.307l-3.1101-12.532l-4.0359,11.134l-9.134-1.688
		l-6.6958,3.3057l-8.0464-0.1245l-3.6318-7.9882l-1.8853,7.9028l-4.0825-0.0631l-0.6982-3.7308l-7.4902,3.6041l-6.3914-0.0989
		l-2.0784-3.6862l-0.9363,3.6395l-4.3337-0.067l-2.7009-7.9474l-11.6628,3.213l-10.7551-1.828l-3.4609,6.1202l-8.1438-0.126
		l-11.9014-3.6153l-3.5569-6.162l-2.9211,9.7706l-5.5986,0.0635l-13.3394-7.8291l-7.3479,3.786l-5.4861-0.062l-12.752-6.794
		l-4.196,11.3879l-8.3921,0.0952l-2.1868-5.001l-2.6021-14.021l-5.4744,19.1384l-9.6941,0.1099l-0.7124-0.3552
		c0,0-2.7622-25.227-4.603-42.046C788.476,6.307,787.786,0,787.786,0s-0.3289,5.731-0.7671,13.372
		c-0.439,7.641-0.9871,17.192-1.426,24.833c-0.438,7.641-0.7668,13.372-0.7668,13.372l-4.0149,4.835l-1.5293-4.898l-0.8433,5.7877
		l-3.7864,0.0429l-2.7412-8.2715l-3.9954,8.3479l-3.7891,0.043c-0.4409-2.0991-0.9629-4.5847-1.4866-7.0769
		c-1.3489-6.275-2.9119-12.553-2.9119-12.553s-0.7612,4.243-1.6143,8.484c-0.8599,4.242-1.7759,8.483-1.7759,8.483l-3.655-12.284
		c-0.6829,3.524-0.71,5.89-1.9329,9.427c-2.313-4.76-2.2603-9.493-4.5732-14.253c-0.0527,4.733-2.46,8.256-1.5149,13.429
		c-0.3875,2.2776-0.7993,4.5493-1.178,6.5779l-2.625,0.0297c-0.4836-2.5748-1.092-5.5872-1.8711-8.6057
		c-2.3428-5.6219-3.459-11.551-6.9561-16.325c2.3003,5.943,2.2332,11.8589,2.166,17.776c-3.5098-3.59-4.6399-8.337-6.9519-13.097
		c1.116,5.93,2.218,13.043,1.6211,19.203c-0.0286,0.3957-0.0588,0.7905-0.0886,1.1855l-4.2419,0.0481
		c-0.7017-3.9735-1.3745-7.0346-1.3745-7.0346s-0.0479,3.3101-0.3457,7.0541l-3.3232,0.0377
		c-0.9187-3.7894-2.002-7.1558-2.002-7.1558l-1.6526,7.1972l-2.3557,0.0267l-1.6189-7.2878c0,0,0.1748,3.3289,0.0781,7.3053
		l-2.2021,0.025c-0.0757-0.7047-0.1526-1.4134-0.2319-2.1243c-0.1462-5.246-4.1653-9.738-5.6562-14.1434
		c0.8323,2.9997,0.9226,5.241,1.9482,8.4384c-2.3398-2.393-4.679-4.787-7.019-7.18c2.313,4.76-0.1069,9.466-0.9277,14.403
		c-0.085,0.2483-0.1697,0.4959-0.2546,0.7439l-6.4905,0.0735c-0.6821-4.233-1.542-7.7945-1.542-7.7945l-3.0659,7.8467
		l-0.8208,0.0093c-0.5552-2.1392-1.8318-6.6707-3.7593-11.224c-3.2539-4.286-5.5669-9.046-10.26-12.649
		c2.313,4.76,4.626,9.52,5.9351,14.364c-0.0835,3.4869-0.4165,6.9644-0.7344,9.6089l-1.2356,0.014
		c-0.0029-0.0218-0.0054-0.041-0.0081-0.0629c-1.751-9.698-7.573-18.048-13.4089-25.2141c2.312,4.759,4.6389,8.336,6.6438,13.2271
		c0.5352,4.996,0.3223,9.9588,0.1829,12.1246l-0.2798,0.0031l-1.437-8.3198l-2.7395,8.3671l-1.3196,0.015l-6.991-8.5371
		c-2.4768-5.142-4.7759-11.085-9.469-14.688c3.4819,5.956,3.4021,13.055,3.322,20.155c-2.353-1.21-3.4958-4.773-4.666-5.97
		c-8.27-1.277-18.959,2.152-22.4019-7.354c-0.0261,2.366-0.053,4.733,0.0649,7.334c-0.614,3.689-1.4451,7.349-1.4451,7.349
		s-1.4719-3.397-3.0371-6.795c-1.4849-9.138-7.4409-5.656-12.8818-2.97l-2.8091,12.478c0,0-0.7759-7.168-2.407-14.382
		c-1.1218-5.648-6.9849-10.449-9.2981-15.208c-0.0527,4.733,4.6392,8.336,4.4292,13.538c-0.259,6.3911-1.6182,12.729-1.6182,12.729
		l-3.7249-6.914c-3.9929-4.025-6.3191-7.601-9.8291-11.191c-0.0269,2.366,1.1169,5.929,0.927,7.876
		c-0.2649,3.927-0.927,7.835-0.927,7.835l-2.364-7.369l-2.427,9.83l-1.8528-7.174l-5.4712-0.062l-3.626,5.346l-4.8101-13.328
		l-3.3889,12.309l-4.188-8.583c0,0-0.1829,5.502-0.9622,10.948l-1.6028,10.889c0,0-0.802-4.455-1.604-8.91
		s-1.7141-8.938-1.7141-8.938l-1.0889,9.575c0,0-0.7729-3.987-1.584-7.99c-1.0952-4.051-2.7461-8.145-2.7461-8.145l-0.0439,6.481
		l-3.105-8.619l-1.5811,12.652l-3.718-13.237c0,0,0.4749,4.371,0.2249,8.753c-0.7678,4.312-1.6758,8.554-1.6758,8.554
		s-0.2791-5.377-1.3892-12.76c-5.9561-17.226-13.5569-25.963-26.783-31.455c12.2671,9.65,22.448,22.381,18.71,38.9059
		c-0.0269,2.367-8.7869-2.316-14.7429,1.166c-1.157-2.379-1.1299-4.746-2.2861-7.126c-1.21,2.353-2.4067,3.523-3.6179,5.876
		c-2.3401-2.393-3.4819-5.956-4.6379-8.336c-0.0281,2.366-0.0679,5.916-1.002,8.508c-0.7141,3.981-1.4302,7.961-1.4302,7.961
		s-0.8069-3.732-1.6128-7.464c-0.9651-3.73-2.437-7.443-2.437-7.443l-6.8501,8.507l-4.5859,4.458c0,0-0.2222-1.979-0.5791-4.949
		c-1.5918-12.173-12.1738-18.209-19.2061-24.206c8.2021,7.193,15.1941,16.739,12.342,27.303
		c-0.3179,2.558-0.6279,4.945-0.8928,6.9901c-0.5322,4.0909-0.8872,6.817-0.8872,6.817s-0.8569-5.416-1.7158-10.833
		c0.3789-8.871-7.8359-14.881-12.4761-23.218c2.313,4.76,4.6401,8.337,4.572,14.253c-1.1292-4.746-7.0461-4.814-8.175-9.56
		c-7.1541,4.653-1.3179,11.819-2.585,17.141c-1.1079,6.342-2.4409,12.696-2.4409,12.696s-0.4302-5.595-0.998-11.185
		c1.1289-4.507-2.3931-6.914-3.5371-10.477c-1.1689-1.196-4.719-1.237-5.915-0.067c-1.21,2.353-0.0669,5.917-0.095,8.283
		c-4.6121-10.703-13.9968-17.91-23.3831-25.116c4.666,5.97,11.6992,11.966,12.7881,20.262c-2.3259-3.576-4.6519-7.153-8.1748-9.559
		c3.4688,7.139,3.375,15.422,3.2949,22.521c-1.063-10.662-6.8853-19.012-13.9041-26.192c1.1428,3.563,1.0891,8.296,2.2319,11.859
		c-5.876-3.616-8.175-9.559-12.8679-13.163c1.1431,3.563,2.2861,7.127,3.429,10.69c-2.3259-3.577-4.666-5.97-6.9919-9.547
		c-0.0271,2.367-0.0669,5.917,1.0898,8.297c-1.1567-2.38-3.4971-4.774-4.6519-7.156c1.1421,3.566,2.271,8.312,3.415,11.875
		c-1.1699-1.197-2.3262-3.577-3.4961-4.773c-0.0269,2.366-1.2241,3.536-1.251,5.903c-3.509-3.59-7.0259-6.002-10.614-8.112
		c-4.6741-0.345-6.9861-5.105-11.7058-6.342c-0.0273,2.366-0.0801,7.099-1.2642,7.086c-9.5059,3.442-8.176-9.56-8.1079-15.476
		c-1.251,5.903-1.332,13.002-6.1321,18.865c-1.196,1.17-3.5759,2.326-5.916-0.067c-3.4949-4.773,1.291-9.453,0.1619-14.199
		c-1.2639,7.086-4.8679,11.779-6.1309,18.865c0.0269-2.367,0.0571-5.029,0.0869-7.691c0.03-2.663,0.0601-5.325,0.092-7.691
		c-0.0388,2.958-1.2478,5.311-2.605,7.514c-1.3572,2.204-2.8591,4.258-3.4771,6.617c1.2239-3.536,1.2639-7.086,1.3162-10.634
		c-2.418,3.522-4.8252,7.044-7.2319,10.567c0.0669-5.916,0.1348-11.832,3.751-17.708c-5.9841,5.849-14.293,8.121-19.1062,15.168
		c1.2229-3.537,2.446-7.073,3.6702-10.609c-5.9431,2.299-6.0242,9.399-9.6133,12.908c0.0132-1.183,0.04-3.55,0.0532-4.733
		c-1.21,2.353-1.25,5.903-2.457,8.753c-0.865,4.754-1.7129,9.511-1.7129,9.511s-0.7173-6.668-1.2861-13.301
		c0.71-3.833,0.7642-8.566,3.1699-12.0891c-2.3931,2.34-4.7869,4.679-7.1799,7.019c1.2239-3.537,2.447-7.073,3.6711-10.609
		c-5.9841,5.849-15.4893,9.291-15.6101,19.941c-1.0891-8.296,0.2141-18.932,6.197-24.781
		c-7.1521,4.652-13.1362,10.501-14.4131,18.771c-1.156-2.3799-1.1429-3.563-2.299-5.943c-1.197,1.169-2.407,3.522-3.604,4.692
		c-1.1431-3.563-1.103-7.113-1.062-10.662c-2.394,2.34-4.786,4.679-5.9969,7.032c0.053-4.733-1.0631-10.662,3.7109-14.159
		c-4.774,3.497-7.194,8.203-8.4659,14.542l-5.583,5.69c0,0-0.63-4.051-1.15-8.092c-0.4825-1.1565-0.6931-2.2183-0.7456-3.2245
		c-0.9309,2.9609-3.0303,5.2172-5.6844,6.9636c-3.726,2.473-8.772,3.895-12.927,5.031c0.0551-4.733-2.2579-9.493-1.006-14.21
		c-2.4149,2.929-3.6389,6.465-4.8629,10.002c-1.223,3.5359-2.447,7.072-4.847,10.004c0.053-4.733,0.094-8.283,0.1479-13.016
		c-2.407,3.523-4.828,8.229-8.4039,10.555c0.6329-3.543,0.9709-7.385,1.459-11.226c0.488-3.84,1.1219-7.679,2.345-11.215
		c-1.807,2.938-3.027,6.178-4.2469,9.419c-1.2201,3.24-2.441,6.481-4.249,9.419c0.04-3.55,0.094-8.283,0.134-11.833
		c-2.394,2.34-4.7871,4.68-7.193,8.203c-3.509-3.59,3.6169-5.877,1.2899-9.453c-2.3929,2.34-4.787,4.679-5.996,7.033
		c0.0129-1.183,1.223-3.537,1.2369-4.72c-2.408,3.523-4.7999,5.863-7.2069,9.385c0.026-2.366,1.223-3.536,1.251-5.902
		c-2.408,3.522-4.801,5.862-7.194,8.202c0.067-5.916,6.0229-9.399,7.26-14.118c-4.76,2.312-9.546,6.992-13.1361,10.501
		c0.026-2.366,1.223-3.536,1.2511-5.903c-3.5641,1.144-5.985,5.849-10.704,4.613c1.21-2.353,2.407-3.523,3.6169-5.876
		c-9.506,3.442-16.686,10.461-20.343,19.887c1.277-8.269,4.907-15.329,10.891-21.178c-4.76,2.313-8.337,4.64-13.0959,6.952
		c1.197-1.17,2.406-3.523,3.6019-4.693c-3.589,3.51-8.3619,7.006-11.9519,10.515c0.054-4.733,2.46-8.255,4.88-12.962
		c-9.5061,3.443-16.6461,6.912-21.4861,16.324c0.0801-7.099,6.05-11.765,9.6541-16.458c-4.76,2.313-8.364,7.006-13.123,9.319
		c2.446-7.073,6.063-12.949,12.02-16.431c-9.52,4.625-17.856,9.264-25.036,16.283c1.224-3.536,2.447-7.072,4.854-10.595
		c-4.787,4.679-10.77,10.528-14.386,16.404c2.447-7.072,4.8929-14.145,12.033-17.614c-5.9299,1.116-8.377,8.189-14.2789,6.938
		c4.8259-8.229,14.345-12.854,21.499-17.507c-9.52,4.626-20.2361,10.421-27.442,19.807c4.84-9.412,15.5559-15.208,23.9049-21.03
		c-13.0959,6.951-28.585,16.243-31.09,33.301c-0.403,7.249-0.688,12.6849-0.688,12.6849s-0.0909-1.943-0.2271-4.857
		c-0.137-2.9139-0.3169-6.799-0.2859-10.6719c1.246-5.958,3.6659-10.664,6.0859-15.37c-4.787,4.679-7.22,10.569-8.47,16.471
		c0.8662-4.8601,1.1776-9.7259,3.2133-13.809c4.7957-5.6149,9.6531-11.1334,15.7502-14.7456
		c-10.3281,5.42-19.4263,12.0974-24.8125,22.5716c1.1222-2.1823,1.2251-4.3765,1.2557-6.5709
		c2.0485-3.3043,4.3295-6.606,6.0312-9.9141C73.965,41.908,66.798,47.744,64.99,58.347c-0.626,2.698-0.963,4.504-0.963,4.504
		s-0.554-6.479-0.125-12.873c1.74-4.614,4.147-8.137,6.566-12.843c-2.1597,4.2014-6.1737,6.507-8.735,10.2993
		c0.4658-1.1477,0.7446-2.4866,1.556-3.2803c-2.3931,2.34-2.4331,5.889-4.797,8.81c-0.922,4.753-1.4761,9.54-1.4761,9.54
		s-0.244-5.276,0.005-10.505c0.8751-1.8707,0.8439-4.2907,1.4056-6.4395c-1.9351,3.3628-3.3833,7.0961-4.3433,10.8848
		c0.8672-4.1215,1.1774-8.2498,3.2897-12.3574c-3.6171,5.876-4.8671,11.778-5.0591,17.35c-0.266,4.537-0.531,9.074-0.73,12.476
		c-0.2,3.403-0.333,5.672-0.333,5.672s-0.2419-7.277-0.5659-16.978c-0.082-2.425-0.1641-5.0031-0.1681-7.647
		c1.8556-16.0772,14.6758-26.0162,27.8796-33.584C65.884,28.1775,52.8472,35.877,48.243,48.8639
		c-0.1154-0.3765-0.2181-0.748-0.3004-1.1113c0.2203-1.1967,0.2828-2.4347-0.0356-3.7725
		c-0.0006,0.0541-0.0092,0.1027-0.0115,0.1558c-0.0267-2.3555-0.0497-4.3656-0.08-7.0506c0.0347,3.0987-0.4382,5.6973-0.2014,8.5083
		c-0.0037,0.0104-0.0066,0.0213-0.0104,0.0317c-0.9741-2.8044-1.9381-4.7133-2.8947-5.9537c1.074-1.8093,2.502-3.5272,4.4879-5.1445
		c-1.9233,1.4091-3.274,3.209-4.5909,5.0065c-1.9658-2.454-3.9006-2.1605-5.8281-1.2263c0.561-1.3295,1.2694-2.6037,2.1371-3.8742
		c-1.6312,1.5945-3.265,3.4399-4.9,5.4115c-1.3733,0.7526-2.7487,1.3065-4.1348,0.9045c0.6116-1.8333,1.5071-3.6379,3.1047-5.2
		c-1.6888,1.0986-3.1145,2.7339-4.4077,4.5183c-0.1611-0.1245-0.3223-0.2573-0.4836-0.4151
		c-0.1848,0.7767-0.4053,1.4503-0.6516,2.0505c-0.5894,0.8895-1.1548,1.7828-1.7103,2.6503
		c-0.2474,0.2413-0.5055,0.4532-0.7733,0.6398c1.4609-3.9908,4.5398-6.3273,5.6736-10.6537c-2.407,3.523-4.7999,5.863-7.193,8.203
		c0.7645-0.7479,1.0533-1.983,1.4735-3.0835c-1.5576,2.42-3.5518,4.6155-4.8799,7.1536c-0.022,0.0041-0.0438,0.0081-0.0658,0.0121
		c0.2745-1.2779,0.5776-2.584,1.1052-4.1093c-1.2389,1.2114-1.9113,2.7148-2.3503,4.3607
		c-0.8441,0.1895-1.6819,0.4349-2.4877,0.8182c1.5702-5.5029,4.8618-10.826,9.678-14.5909c-4.7729,3.496-9.559,8.175-10.918,13.526
		c-0.3629,0.8856-0.6946,1.7703-0.9976,2.6409c-0.5057-0.7407-1.0122-1.5405-1.519-2.3635
		c0.4231-5.7321,5.1105-9.2096,6.3356-13.8843c-3.178,3.1063-5.8365,6.7441-8.3253,10.5552
		c-0.4357-0.7426-0.8713-1.4813-1.3068-2.2122c0.0259-0.0538,0.045-0.1144,0.0721-0.167c-0.0372,0.0364-0.0641,0.0833-0.0991,0.1219
		c-0.087-0.146-0.1741-0.2912-0.2612-0.436c4.4945-8.8738,12.4336-14.823,19.5343-20.77
		c-7.6168,5.2035-15.2335,11.3787-20.7179,18.8455c-0.3137-0.4935-0.6272-0.9736-0.9404-1.4323
		c0.2136,0.6176,0.4275,1.2353,0.6411,1.8529c-0.6135,0.8533-1.197,1.7238-1.7512,2.6112
		c-0.2031-0.2535-0.4064-0.5058-0.6096-0.7662c0.1711,0.3519,0.3113,0.7049,0.4252,1.0591
		c-0.5936,0.9668-1.1615,1.9476-1.6765,2.9559c-0.0814-0.7346-0.2882-1.4283-0.7476-2.0356
		c0.0874-0.2969,0.1713-0.5938,0.2739-0.8904c-0.2367,0.1539-0.4386,0.3199-0.6173,0.4939
		c-0.1785-0.1739-0.3804-0.3398-0.6169-0.4937c0.1025,0.2966,0.1863,0.5933,0.2737,0.8901
		c-0.4595,0.6074-0.6664,1.3011-0.7479,2.0356c-0.515-1.0082-1.0829-1.9889-1.6764-2.9556
		c0.1138-0.3541,0.2539-0.7072,0.4249-1.0589c-0.2032,0.2603-0.4062,0.5126-0.6094,0.766
		c-0.5542-0.8875-1.1379-1.7582-1.7516-2.6116c0.2136-0.6176,0.4274-1.2353,0.641-1.8528C0.4296,37.8412,0.2147,38.1744,0,38.5057
		v0.8831v4.763V229.246h2059.0942V44.1518v-4.763v-0.8831C2058.9954,38.6581,2058.8967,38.8038,2058.7981,38.9592z"/>
</g>
</svg>
