<?xml version="1.0" encoding="utf-8"?>
<!-- Generator: Adobe Illustrator 27.5.0, SVG Export Plug-In . SVG Version: 6.00 Build 0)  -->
<svg version="1.1" id="Layer_1" xmlns="http://www.w3.org/2000/svg" xmlns:xlink="http://www.w3.org/1999/xlink" x="0px" y="0px"
	 viewBox="0 0 808.6 274.5" style="enable-background:new 0 0 808.6 274.5;" xml:space="preserve">
<style type="text/css">
	.st0{fill:#C52830;}
	.st1{fill:#EF4748;}
	.st2{fill:#FFFFFF;}
</style>
<polygon class="st0" points="808.6,208.3 760.4,162 808.6,104.3 664.7,121.4 664.7,225.4 "/>
<polygon class="st1" points="93.6,170.5 740.3,93.6 740.3,197.6 93.6,274.5 "/>
<g>
	<path class="st2" d="M121.1,219.6c0-3.6,0.5-6.8,1.5-9.6s2.5-5.3,4.3-7.3c1.8-2,4-3.7,6.4-4.9s5.1-2,7.9-2.3
		c1.8-0.2,3.3-0.3,4.6-0.2c1.2,0.1,2.3,0.2,3.2,0.4s1.7,0.3,2.5,0.4l-1.3,9.3c-0.4-0.2-0.9-0.5-1.6-0.8c-0.7-0.3-1.6-0.5-2.6-0.7
		c-1.1-0.2-2.4-0.2-4,0c-2,0.2-3.8,0.9-5.5,2.1c-1.6,1.2-2.9,2.8-3.9,4.8s-1.4,4.4-1.4,7.1c0,2.8,0.4,5.2,1.3,7.2
		c0.8,2,2.1,3.5,3.7,4.5s3.7,1.3,6.2,1c1.1-0.1,2.2-0.4,3.4-0.8c1.1-0.4,2.2-0.9,3.1-1.4c0.9-0.5,1.6-1,2-1.5v8.7
		c-0.7,0.4-1.5,0.8-2.4,1.3s-2,0.9-3.2,1.3c-1.2,0.4-2.6,0.7-4.1,0.9c-4.3,0.5-8,0.1-11-1.3c-3-1.4-5.3-3.6-6.9-6.7
		C121.9,227.6,121.1,223.9,121.1,219.6z"/>
	<path class="st2" d="M154.1,236.8v-46.4l9.6-1.1v11.9l-0.5,7.2l-0.3-0.8c0.6-0.7,1.4-1.4,2.4-2.1c1-0.7,2.1-1.4,3.3-2
		s2.5-0.9,3.8-1.1c3.2-0.5,5.6,0.2,7.1,2.1c1.5,1.8,2.3,4.9,2.3,9.2v19.9l-9.6,1.1v-18.2c0-2.4-0.3-4-0.9-4.7
		c-0.6-0.7-1.6-1-2.8-0.8c-0.6,0.1-1.4,0.3-2.3,0.7c-0.9,0.4-1.7,1-2.4,1.9v22.1L154.1,236.8z"/>
	<path class="st2" d="M186.2,232.9v-31.8l8.4-1l0.5,5.6l0.7,0.8v25.3L186.2,232.9z M195.2,213.1l-0.4-7.4c0.4-1.2,0.9-2.3,1.8-3.3
		s1.8-1.9,3-2.5c1.2-0.7,2.4-1.1,3.8-1.2c0.4-0.1,0.8-0.1,1.3-0.1c0.4,0,0.7,0.1,0.9,0.1v10.2c-0.2-0.1-0.6-0.3-1.1-0.4
		c-0.5-0.1-1.2-0.1-2.1,0c-1.4,0.2-2.6,0.5-3.6,1.1s-1.7,1.2-2.3,1.8S195.5,212.7,195.2,213.1z"/>
	<path class="st2" d="M212.9,194.1c-1.5,0.2-2.8-0.2-3.8-1c-1-0.9-1.5-2.1-1.5-3.6c0-1,0.3-2,0.8-3c0.5-0.9,1.2-1.7,2.1-2.3
		s1.8-1,2.9-1.1c1.6-0.2,2.8,0.2,3.8,1c1,0.9,1.4,2.1,1.4,3.7c0,1.6-0.6,3-1.7,4.3C215.8,193.2,214.5,194,212.9,194.1z M208.6,230.3
		v-31.8l9.6-1.1v31.8L208.6,230.3z"/>
	<path class="st2" d="M221.7,226.6l1-7.2c0.3,0.2,0.9,0.5,1.8,0.9c0.9,0.3,1.9,0.6,3.2,0.8c1.2,0.2,2.5,0.2,3.8,0.1
		c1.5-0.2,2.6-0.5,3.3-0.9s1-1.1,1-1.9c0-0.6-0.2-1-0.7-1.4s-1.1-0.7-1.9-0.9c-0.8-0.3-1.7-0.5-2.7-0.8c-2.2-0.6-3.9-1.3-5.1-2.2
		c-1.3-0.9-2.2-1.9-2.7-3.1c-0.5-1.2-0.8-2.6-0.8-4.2c0-2.1,0.6-3.8,1.7-5.3c1.1-1.5,2.6-2.7,4.4-3.6c1.9-0.9,3.9-1.5,6.1-1.8
		c2.4-0.3,4.4-0.3,6.1,0c1.6,0.3,2.8,0.5,3.4,0.9l-0.8,7.4c-0.4-0.3-0.9-0.6-1.7-0.9c-0.8-0.3-1.6-0.5-2.6-0.7s-1.9-0.2-2.9-0.1
		c-1.6,0.2-2.8,0.5-3.5,1c-0.7,0.4-1,1-1,1.7c0,0.9,0.4,1.4,1.1,1.8c0.7,0.3,1.9,0.7,3.4,1.1c2.3,0.6,4.2,1.3,5.6,2.1
		c1.4,0.8,2.5,1.7,3.1,2.8s1,2.5,1,4.2c0,3.3-1.1,6-3.4,7.9c-2.3,2-5.3,3.2-9,3.6c-1.6,0.2-3.2,0.2-4.6,0.1
		c-1.5-0.1-2.7-0.3-3.9-0.6C223.1,227.2,222.3,226.9,221.7,226.6z"/>
	<path class="st2" d="M257.4,224.9c-2.1,0.3-3.8,0.1-5.1-0.5s-2.2-1.7-2.7-3.1c-0.6-1.5-0.8-3.4-0.8-5.7v-15.1l-3.4,0.4v-5.5
		c1.3-0.6,2.4-1.1,3.2-1.6s1.5-1.3,1.9-2.2c0.2-0.5,0.4-1,0.6-1.6c0.2-0.6,0.5-1.3,0.7-2s0.5-1.4,0.7-2l5.8-0.7v7.2l7.6-0.9v6.8
		l-7.6,0.9v11.3c0,2,0.1,3.4,0.3,4.3c0.2,0.9,0.6,1.4,1,1.6c0.5,0.2,1.2,0.2,2,0.1c0.4-0.1,0.9-0.2,1.5-0.4s1.1-0.4,1.6-0.7
		s0.9-0.5,1.2-0.7l1.1,5.6c-0.5,0.5-1.2,1.1-2.2,1.8c-1,0.6-2.2,1.2-3.5,1.7C260.2,224.4,258.8,224.8,257.4,224.9z"/>
	<path class="st2" d="M269.6,223v-31.8l8.7-1l0.2,3.4c0.7-0.7,1.5-1.4,2.5-2.1c1-0.7,2.1-1.3,3.3-1.9c1.2-0.5,2.5-0.9,3.8-1.1
		c2-0.3,3.6-0.1,4.9,0.5s2.3,1.8,3,3.5s1,4.1,1,7.1v20.1l-9.5,1.1v-18.2c0-1.5-0.1-2.7-0.3-3.6c-0.2-0.8-0.6-1.4-1.1-1.7
		s-1.3-0.4-2.2-0.3c-0.7,0.1-1.5,0.3-2.4,0.8s-1.7,1.1-2.4,1.8v22.1L269.6,223z M296.7,197.9l-1.6-6.1c0.5-0.5,1.2-1.1,2.2-1.9
		c1-0.8,2.2-1.5,3.6-2.1s2.9-1.1,4.5-1.2c2-0.3,3.7-0.1,5.1,0.5s2.5,1.7,3.3,3.4s1.1,4.1,1.1,7.2v20l-9.6,1.1v-18.2
		c0-1.5-0.1-2.7-0.3-3.6c-0.2-0.8-0.6-1.4-1.2-1.7c-0.5-0.3-1.3-0.4-2.2-0.2c-1,0.1-2,0.5-2.8,1.1
		C297.9,196.8,297.2,197.4,296.7,197.9z"/>
	<path class="st2" d="M327.4,216.6c-1.9,0.2-3.6,0-5.1-0.7c-1.4-0.7-2.6-1.8-3.3-3.2c-0.8-1.4-1.2-3.1-1.2-5.1c0-1.9,0.5-3.5,1.4-5
		s2.2-2.7,3.9-3.6c1.2-0.7,2.5-1.3,3.9-1.7s2.8-0.8,4.2-1.1c1.4-0.3,2.7-0.5,4-0.6l1.4,1.7l-1.4,3.3c-0.6,0.1-1.3,0.2-1.9,0.4
		c-0.7,0.2-1.3,0.4-1.9,0.6c-0.6,0.2-1.1,0.4-1.4,0.6c-0.5,0.3-1.1,0.7-1.5,1.3c-0.5,0.5-0.7,1.4-0.7,2.5c0,1.5,0.4,2.5,1.2,3.1
		c0.8,0.6,1.6,0.8,2.6,0.7c0.5-0.1,1-0.2,1.5-0.4s0.9-0.4,1.3-0.7c0.4-0.2,0.7-0.5,0.8-0.7l1.5,1.9l-1.1,2.6
		c-0.8,0.9-1.9,1.7-3.2,2.5C331.1,215.8,329.4,216.4,327.4,216.6z M344.7,214.1l-9.1,1.1v-4.7l-0.5,0.1v-16.8c0-1.4-0.4-2.3-1.1-2.6
		c-0.7-0.4-1.7-0.4-3.1-0.3c-1.1,0.1-2.3,0.4-3.5,0.7s-2.4,0.7-3.6,1.2c-1.1,0.5-2.2,1-3,1.5l-2-5.8c0.7-0.6,1.8-1.2,3.1-1.9
		c1.4-0.7,2.9-1.3,4.6-1.9c1.7-0.6,3.5-1,5.2-1.2c3.1-0.4,5.6-0.3,7.4,0.3c1.9,0.6,3.2,1.7,4.1,3.3s1.3,3.9,1.3,6.9v20.1
		L344.7,214.1L344.7,214.1z"/>
	<path class="st2" d="M348,211.6l1-7.2c0.3,0.2,0.9,0.5,1.8,0.9c0.9,0.3,1.9,0.6,3.2,0.8c1.2,0.2,2.5,0.2,3.8,0.1
		c1.5-0.2,2.6-0.5,3.3-0.9c0.7-0.4,1-1.1,1-1.9c0-0.6-0.2-1-0.7-1.4s-1.1-0.7-1.9-0.9c-0.8-0.3-1.7-0.5-2.7-0.8
		c-2.2-0.6-3.9-1.3-5.1-2.2c-1.3-0.9-2.2-1.9-2.7-3.1c-0.5-1.2-0.8-2.6-0.8-4.2c0-2.1,0.6-3.8,1.7-5.3s2.6-2.7,4.4-3.6
		c1.9-0.9,3.9-1.5,6.1-1.8c2.4-0.3,4.4-0.3,6.1,0c1.6,0.3,2.8,0.5,3.4,0.9l-0.8,7.4c-0.4-0.3-0.9-0.6-1.7-0.9
		c-0.8-0.3-1.6-0.5-2.6-0.7s-1.9-0.2-2.9-0.1c-1.6,0.2-2.8,0.5-3.5,1c-0.7,0.4-1,1-1,1.7c0,0.9,0.4,1.4,1.1,1.8
		c0.7,0.3,1.9,0.7,3.4,1.1c2.3,0.6,4.2,1.3,5.6,2.1s2.5,1.7,3.1,2.8s1,2.5,1,4.2c0,3.3-1.1,6-3.4,7.9c-2.3,2-5.3,3.2-9,3.6
		c-1.6,0.2-3.2,0.2-4.6,0.1c-1.5-0.1-2.7-0.3-3.9-0.6C349.3,212.2,348.5,211.9,348,211.6z"/>
	<path class="st2" d="M381.3,209.7v-42.4l9.7-1.2V200l13.3-1.6v8.6L381.3,209.7z"/>
	<path class="st2" d="M411.5,170.5c-1.5,0.2-2.8-0.2-3.8-1c-1-0.9-1.5-2.1-1.5-3.6c0-1,0.3-2,0.8-3c0.5-0.9,1.2-1.7,2.1-2.3
		s1.8-1,2.9-1.1c1.6-0.2,2.8,0.2,3.8,1c1,0.9,1.4,2.1,1.4,3.7c0,1.6-0.6,3-1.7,4.3S413.1,170.3,411.5,170.5z M407.2,206.7v-31.8
		l9.6-1.1v31.8L407.2,206.7z"/>
	<path class="st2" d="M434.7,217.8c-5.2,0.6-9,0.1-11.2-1.3c-2.3-1.5-3.4-3.6-3.4-6.6c0-1.1,0.2-2.1,0.7-3s1.2-1.8,2.1-2.5
		c0.9-0.8,2.1-1.4,3.4-1.9l5.1-0.3c-0.2,0.2-0.5,0.6-0.9,1s-0.7,1-0.9,1.6c-0.3,0.6-0.4,1.4-0.4,2.3c0,1,0.2,1.9,0.5,2.7
		c0.3,0.9,0.9,1.5,1.8,2s2.1,0.6,3.8,0.4c1.3-0.2,2.4-0.4,3.5-0.9c1-0.4,1.8-1,2.4-1.8s0.9-1.7,0.9-2.8c0-0.8-0.1-1.5-0.4-2.2
		c-0.3-0.6-0.8-1.1-1.6-1.4c-0.8-0.3-2-0.3-3.6-0.2l-6.4,0.8c-0.4,0.1-0.8,0-1.1-0.1c-0.3-0.1-0.7-0.2-1.1-0.2
		c-0.4-0.1-0.7-0.1-0.8-0.2c-0.1-0.1-0.4-0.1-0.8-0.1c-1.3-0.1-2.3-0.5-3-1c-0.7-0.6-1-1.5-1-2.7c0-0.7,0.1-1.5,0.4-2.4
		c0.2-0.9,0.7-1.7,1.4-2.6c0.7-0.9,1.8-1.6,3.2-2.3l5.1,0.2c-0.8,0.4-1.3,0.9-1.6,1.5c-0.3,0.6-0.5,1.2-0.5,1.7
		c0,0.8,0.3,1.3,0.8,1.5c0.6,0.2,1.5,0.3,2.9,0.1l5.3-0.6c2.3-0.3,4.2-0.3,5.7,0s2.7,0.8,3.6,1.4c0.9,0.7,1.5,1.5,1.9,2.5
		s0.6,2,0.6,3.2c0,2.1-0.5,4-1.4,5.7s-2.1,3.1-3.7,4.3s-3.3,2.2-5.3,2.9S436.8,217.5,434.7,217.8z M434.1,192.8
		c-2.6,0.3-4.9,0.2-6.9-0.4c-2-0.6-3.5-1.6-4.6-3c-1.1-1.5-1.6-3.3-1.6-5.6s0.5-4.3,1.6-6.1c1-1.8,2.6-3.2,4.5-4.3s4.3-1.8,7-2.1
		c2.8-0.3,5.1-0.2,7.1,0.4c2,0.6,3.5,1.7,4.6,3.1c1.1,1.5,1.6,3.3,1.6,5.6s-0.5,4.3-1.4,6c-1,1.7-2.4,3.1-4.4,4.2
		C439.7,191.7,437.2,192.4,434.1,192.8z M434.2,187.4c1.4-0.2,2.5-0.6,3.3-1.4c0.8-0.8,1.3-2.3,1.3-4.4c0-1.7-0.4-2.9-1.1-3.6
		c-0.7-0.7-1.9-1-3.3-0.8c-0.9,0.1-1.7,0.3-2.3,0.7c-0.6,0.4-1.1,0.9-1.3,1.7c-0.3,0.7-0.5,1.8-0.5,3c0,1.5,0.3,2.7,0.9,3.7
		C431.7,187.2,432.7,187.6,434.2,187.4z M443.8,177.6l-1-4.2c0.3-0.5,1-1.2,2-2s2.3-1.3,3.8-1.5l3.8-0.5v7.1L443.8,177.6z"/>
	<path class="st2" d="M454.2,201.1v-46.4l9.6-1.1v11.9l-0.5,7.2l-0.3-0.8c0.6-0.7,1.4-1.4,2.4-2.1c1-0.7,2.1-1.4,3.3-2
		c1.2-0.6,2.5-0.9,3.8-1.1c3.2-0.5,5.6,0.2,7.1,2.1c1.5,1.8,2.3,4.9,2.3,9.2v19.9l-9.6,1.1v-18.2c0-2.4-0.3-4-0.9-4.7
		s-1.6-1-2.8-0.8c-0.6,0.1-1.4,0.3-2.3,0.7s-1.7,1-2.4,1.9V200L454.2,201.1z"/>
	<path class="st2" d="M495.9,196.6c-2.1,0.3-3.8,0.1-5.1-0.5c-1.3-0.6-2.2-1.6-2.7-3.1c-0.6-1.5-0.8-3.4-0.8-5.7v-15.1l-3.4,0.4
		v-5.5c1.3-0.6,2.4-1.1,3.2-1.6c0.8-0.5,1.5-1.3,1.9-2.2c0.2-0.5,0.4-1,0.6-1.6s0.5-1.3,0.7-2s0.5-1.4,0.7-2l5.8-0.7v7.2l7.6-0.9
		v6.8l-7.6,0.9v11.3c0,2,0.1,3.4,0.3,4.3c0.2,0.9,0.6,1.4,1,1.6c0.5,0.2,1.2,0.2,2,0.1c0.4-0.1,0.9-0.2,1.5-0.4s1.1-0.4,1.6-0.7
		c0.5-0.2,0.9-0.5,1.2-0.7l1.1,5.6c-0.5,0.5-1.2,1.1-2.2,1.8c-1,0.6-2.2,1.2-3.5,1.7C498.7,196.1,497.4,196.4,495.9,196.6z"/>
	<path class="st2" d="M506.6,192.7l1-7.2c0.3,0.2,0.9,0.5,1.8,0.9c0.9,0.3,1.9,0.6,3.2,0.8c1.2,0.2,2.5,0.2,3.8,0.1
		c1.5-0.2,2.6-0.5,3.3-0.9c0.7-0.5,1-1.1,1-1.9c0-0.6-0.2-1-0.7-1.4s-1.1-0.7-1.9-0.9c-0.8-0.3-1.7-0.5-2.7-0.8
		c-2.2-0.6-3.9-1.3-5.1-2.2c-1.3-0.9-2.2-1.9-2.7-3.1c-0.5-1.2-0.8-2.6-0.8-4.2c0-2.1,0.6-3.8,1.7-5.3s2.6-2.7,4.4-3.6
		c1.9-0.9,3.9-1.5,6.1-1.8c2.4-0.3,4.4-0.3,6.1,0c1.6,0.3,2.8,0.5,3.4,0.9l-0.8,7.4c-0.4-0.3-0.9-0.6-1.7-0.9
		c-0.8-0.3-1.6-0.5-2.6-0.7s-1.9-0.2-2.9-0.1c-1.6,0.2-2.8,0.5-3.5,1c-0.7,0.4-1,1-1,1.7c0,0.9,0.4,1.4,1.1,1.8s1.9,0.7,3.4,1.1
		c2.3,0.6,4.2,1.3,5.6,2.1c1.4,0.8,2.5,1.7,3.1,2.8s1,2.5,1,4.2c0,3.3-1.1,6-3.4,7.9c-2.3,2-5.3,3.2-9,3.6c-1.6,0.2-3.2,0.2-4.6,0.1
		c-1.5-0.1-2.7-0.3-3.9-0.6C508,193.3,507.2,193,506.6,192.7z"/>
	<path class="st2" d="M538,170c0-3.6,0.5-6.8,1.5-9.6s2.5-5.3,4.3-7.3s4-3.7,6.4-4.9s5.1-2,7.9-2.3c1.8-0.2,3.3-0.3,4.6-0.2
		c1.2,0.1,2.3,0.2,3.2,0.4s1.7,0.3,2.5,0.4l-1.3,9.3c-0.4-0.2-0.9-0.5-1.6-0.8c-0.7-0.3-1.6-0.5-2.6-0.7c-1.1-0.2-2.4-0.2-4,0
		c-2,0.2-3.8,0.9-5.5,2.1c-1.6,1.2-2.9,2.8-3.9,4.8s-1.4,4.4-1.4,7.1c0,2.8,0.4,5.2,1.3,7.2c0.8,2,2.1,3.5,3.7,4.5
		c1.7,1,3.7,1.3,6.2,1c1.1-0.1,2.2-0.4,3.4-0.8c1.1-0.4,2.2-0.9,3.1-1.4c0.9-0.5,1.6-1,2-1.5v8.7c-0.7,0.4-1.5,0.8-2.4,1.3
		c-0.9,0.4-2,0.9-3.2,1.3c-1.2,0.4-2.6,0.7-4.1,0.9c-4.3,0.5-8,0.1-11-1.3c-3-1.4-5.3-3.6-6.9-6.7C538.8,178.1,538,174.4,538,170z"
		/>
	<path class="st2" d="M570.9,187.2v-31.8l8.4-1l0.5,5.6l0.7,0.8v25.3L570.9,187.2z M579.9,167.4l-0.4-7.4c0.4-1.2,0.9-2.3,1.8-3.3
		c0.8-1,1.8-1.9,3-2.5c1.2-0.7,2.4-1.1,3.8-1.2c0.4-0.1,0.8-0.1,1.3-0.1c0.4,0,0.7,0.1,0.9,0.1v10.2c-0.2-0.1-0.6-0.3-1.1-0.4
		c-0.5-0.1-1.2-0.1-2.1,0c-1.4,0.2-2.6,0.5-3.6,1.1s-1.7,1.2-2.3,1.8C580.6,166.4,580.2,166.9,579.9,167.4z"/>
	<path class="st2" d="M602.5,183.9c-2.2,0.3-3.9,0.1-5.2-0.4s-2.3-1.3-3-2.5c-0.7-1.1-1.1-2.5-1.4-4.1c-0.2-1.6-0.3-3.4-0.3-5.4
		v-18.7l9.5-1.1v19c0,1.6,0.1,2.8,0.4,3.6c0.3,0.8,0.7,1.3,1.3,1.6c0.6,0.2,1.3,0.3,2.2,0.2c0.6-0.1,1.2-0.2,1.7-0.4
		c0.6-0.2,1-0.5,1.5-0.8s0.8-0.5,1-0.8v-23.3l9.6-1.1V182l-6.9,0.8c-0.6,0.1-1,0-1.4-0.2c-0.3-0.2-0.5-0.6-0.5-1.3v-2l0.2,0.5
		c-0.7,0.7-1.5,1.3-2.5,1.9s-2.1,1.1-3.2,1.5C604.4,183.5,603.4,183.8,602.5,183.9z"/>
	<path class="st2" d="M629.2,144.6c-1.5,0.2-2.8-0.2-3.8-1c-1-0.9-1.5-2.1-1.5-3.6c0-1,0.3-2,0.8-3s1.2-1.7,2.1-2.3s1.8-1,2.9-1.1
		c1.6-0.2,2.8,0.2,3.8,1c1,0.9,1.4,2.1,1.4,3.7c0,1.6-0.6,3-1.7,4.3C632.1,143.7,630.8,144.5,629.2,144.6z M624.9,180.8V149l9.6-1.1
		v31.8L624.9,180.8z"/>
	<path class="st2" d="M638,177.1l1-7.2c0.3,0.2,0.9,0.5,1.8,0.9c0.9,0.3,1.9,0.6,3.2,0.8c1.2,0.2,2.5,0.2,3.8,0.1
		c1.5-0.2,2.6-0.5,3.3-0.9s1-1.1,1-1.9c0-0.6-0.2-1-0.7-1.4s-1.1-0.7-1.9-0.9c-0.8-0.3-1.7-0.5-2.7-0.8c-2.2-0.6-3.9-1.3-5.1-2.2
		c-1.3-0.9-2.2-1.9-2.7-3.1c-0.5-1.2-0.8-2.6-0.8-4.2c0-2.1,0.6-3.8,1.7-5.3c1.1-1.5,2.6-2.7,4.4-3.6c1.9-0.9,3.9-1.5,6.1-1.8
		c2.4-0.3,4.4-0.3,6.1-0.1c1.6,0.3,2.8,0.5,3.4,0.9l-0.8,7.4c-0.4-0.3-0.9-0.6-1.7-0.9c-0.8-0.3-1.6-0.5-2.6-0.7s-1.9-0.2-2.9-0.1
		c-1.6,0.2-2.8,0.5-3.5,1c-0.7,0.4-1,1-1,1.7c0,0.9,0.4,1.4,1.1,1.8c0.7,0.3,1.9,0.7,3.4,1.1c2.3,0.6,4.2,1.3,5.6,2.1
		c1.4,0.8,2.5,1.7,3.1,2.8s1,2.5,1,4.2c0,3.3-1.1,6-3.4,7.9c-2.3,2-5.3,3.2-9,3.6c-1.6,0.2-3.2,0.2-4.6,0.1
		c-1.5-0.1-2.7-0.3-3.9-0.6C639.4,177.7,638.6,177.4,638,177.1z"/>
	<path class="st2" d="M677.3,175c-4.8,0.6-8.4-0.5-10.9-3.1s-3.8-6.5-3.8-11.7c0-3.1,0.6-5.9,1.7-8.5c1.2-2.6,2.8-4.7,5-6.4
		s4.9-2.7,8-3.1c1.6-0.2,3.1-0.2,4.6,0s2.8,0.7,3.9,1.6c1.2,0.8,2.1,2,2.8,3.6s1.1,3.7,1.1,6.2c0,1.1,0,2.2-0.1,3.3
		c-0.1,1-0.1,1.9-0.2,2.6l-21.9,2.6l0.5-5.2l12.8-1.5c0.1-1.6,0-2.8-0.2-3.8s-0.6-1.7-1.2-2.2c-0.6-0.4-1.3-0.6-2.3-0.5
		c-1.1,0.1-2.1,0.6-2.8,1.3c-0.8,0.7-1.3,1.9-1.7,3.6c-0.4,1.6-0.6,3.9-0.5,6.7c0,1.8,0.3,3.3,0.9,4.4c0.6,1.1,1.4,1.8,2.5,2.2
		s2.4,0.5,3.9,0.3c1-0.1,2-0.3,3-0.6s2-0.6,2.9-0.9c0.9-0.4,1.6-0.7,2.1-1l1.5,5.3c-0.7,0.6-1.6,1.3-2.7,2c-1.2,0.7-2.5,1.2-4,1.8
		C680.7,174.4,679,174.8,677.3,175z"/>
</g>
<polygon class="st1" points="80,31.4 292.7,5.5 292.7,62.5 80,88.4 "/>
<g>
	<path class="st2" d="M111.1,74.6l0.2-4.4c-0.7,0-1.5,0-2.2-0.1c-0.7-0.1-1.4-0.2-2-0.3c-0.6-0.1-1-0.3-1.2-0.4l1.3-4.8
		c0.4,0.3,0.9,0.5,1.5,0.6c0.5,0.2,1.1,0.3,1.7,0.4c0.6,0.1,1.1,0.1,1.7,0c0.8-0.1,1.4-0.3,1.9-0.5c0.5-0.2,0.9-0.5,1.1-0.9
		c0.2-0.4,0.3-0.8,0.2-1.3c-0.1-0.8-0.4-1.5-1-2c-0.6-0.6-1.5-1.2-2.6-1.8c-1.6-0.9-2.8-1.9-3.7-3c-0.9-1.1-1.4-2.3-1.6-3.6
		c-0.2-1.2,0-2.4,0.4-3.4c0.4-1,1.1-1.9,2-2.6c0.9-0.7,1.9-1.3,3.1-1.7l0.2-4.4l3.9-0.5l-0.2,4.2c1-0.1,1.9,0,2.6,0.2
		c0.8,0.2,1.4,0.4,1.8,0.6l-1.2,4.8c-0.3-0.2-0.7-0.4-1.2-0.6c-0.5-0.2-1.1-0.3-1.7-0.3c-0.6-0.1-1.2-0.1-1.7,0
		c-0.6,0.1-1.2,0.2-1.6,0.5c-0.4,0.2-0.7,0.5-1,0.9c-0.2,0.3-0.3,0.7-0.2,1.1c0.1,0.5,0.3,1,0.6,1.4c0.3,0.4,0.7,0.8,1.3,1.2
		c0.5,0.4,1.2,0.8,1.9,1.3c1,0.6,1.9,1.2,2.7,1.8c0.8,0.6,1.4,1.3,1.9,2c0.5,0.7,0.8,1.6,0.9,2.6c0.2,1.4,0.1,2.7-0.3,3.8
		c-0.4,1.1-1,2-1.9,2.8s-2.1,1.3-3.5,1.7l-0.3,4.5L111.1,74.6z"/>
	<path class="st2" d="M128.4,67.9l0.4-18.7c-0.6,0.3-1.3,0.6-2,0.9c-0.8,0.2-1.5,0.4-2.2,0.6l-1-3.6c0.7-0.3,1.6-0.7,2.5-1.2
		c0.9-0.5,1.8-1.1,2.7-1.8c0.9-0.7,1.6-1.4,2.3-2.1l0.2,0l3.5,0l-0.4,25.2L128.4,67.9z"/>
	<path class="st2" d="M142,66.5c-0.3,0-0.6,0.1-1,0.1c-0.4,0-0.8,0-1.1-0.1l0.1-3.9c0.3,0,0.5,0,0.7,0c0.2,0,0.4,0,0.6-0.1
		c0.8-0.1,1.7-0.3,2.6-0.6c1-0.3,1.9-0.7,2.7-1.2c0.9-0.5,1.5-1.2,2-1.9c0.5-0.8,0.7-1.6,0.6-2.6c-0.1-1-0.5-1.8-1.1-2.4
		c-0.6-0.6-1.6-0.8-2.9-0.7c-0.4,0-0.8,0.1-1.3,0.3c-0.5,0.1-0.9,0.3-1.3,0.5c-0.4,0.2-0.7,0.4-1,0.5l-2.3-1.9l1.1-11.4l10.1-1.2
		l0.3-0.3l2.9-0.4l-0.7,4.9l-7.6,0.9l-0.7,5c0.3-0.2,0.7-0.4,1.4-0.6c0.6-0.2,1.3-0.3,2.1-0.4c1-0.1,2.1,0,3.1,0.3
		c1,0.3,1.9,0.9,2.6,1.8c0.7,0.9,1.2,2.1,1.4,3.7c0.2,1.6,0,3-0.6,4.3c-0.6,1.3-1.4,2.5-2.6,3.5c-1.2,1-2.7,1.8-4.4,2.5
		C146,65.8,144.1,66.2,142,66.5z"/>
	<path class="st2" d="M168.9,62.9l0.4-21l-5.8,0.9l0.2-4.6l17.4-2.1l-0.1,4.5l-5.8,0.5l-0.4,21L168.9,62.9z"/>
	<path class="st2" d="M183.8,61.1l0.5-25.3l5.8-0.7l-0.5,25.3L183.8,61.1z"/>
	<path class="st2" d="M203.6,58.9c-2.1,0.3-3.9,0-5.3-0.8c-1.4-0.8-2.5-2-3.3-3.5c-0.7-1.5-1.2-3.2-1.5-5c-0.3-2.7-0.1-5.3,0.8-7.7
		c0.8-2.4,2.2-4.5,4-6.1c1.8-1.6,4-2.6,6.6-2.9c0.6-0.1,1.2-0.1,1.7-0.1c0.6,0,1.2,0,1.8,0.1c0.7,0.1,1.4,0.2,2.3,0.4l-1,5.7
		c-0.5-0.4-1.2-0.7-2-1c-0.8-0.3-1.8-0.3-2.8-0.2c-1.5,0.2-2.8,0.8-3.6,1.9c-0.9,1.1-1.5,2.4-1.8,4c-0.3,1.6-0.3,3.3-0.1,5.1
		c0.2,1.3,0.5,2.4,0.9,3.2c0.4,0.8,1,1.4,1.7,1.7c0.7,0.3,1.6,0.4,2.6,0.3c0.7-0.1,1.3-0.2,1.9-0.5s1.2-0.5,1.7-0.8
		c0.5-0.3,0.9-0.6,1.2-0.8l1.3,3.9c-0.2,0.2-0.6,0.5-1.1,0.8c-0.5,0.3-1.1,0.6-1.8,0.9c-0.7,0.3-1.4,0.6-2.1,0.8
		C204.9,58.7,204.2,58.8,203.6,58.9z"/>
	<path class="st2" d="M213.5,57.4l0.5-25.3l5.6-0.7l-0.3,11.1l7.4-12l6.6-0.8l-8.5,12.2c0.2,0.3,0.4,0.6,0.7,1
		c0.3,0.4,0.6,0.9,1,1.5c0.4,0.6,0.9,1.3,1.5,2.2c0.6,0.9,1.3,1.9,2,3.1c0.4,0.6,0.7,1.1,1.1,1.6c0.3,0.5,0.7,1,1,1.4
		c0.3,0.4,0.6,0.8,0.9,1.2c0.3,0.4,0.6,0.7,0.8,1l-6.8,0.8c-0.1-0.1-0.2-0.2-0.3-0.5c-0.2-0.2-0.3-0.5-0.6-0.9
		c-0.2-0.4-0.5-0.9-0.9-1.4c-0.3-0.6-0.7-1.2-1.1-1.9l-2.7-4.5l-2.3,3.1l-0.1,7.1L213.5,57.4z"/>
	<path class="st2" d="M235,54.7l0.5-25.3l14.9-1.8l0,4.5l-9.1,1.1l-0.1,5.6l6.8-0.9l0,4.6l-6.8,0.7l-0.1,6.4l10.3-1.4l0,4.6
		L235,54.7z"/>
	<path class="st2" d="M258.2,51.9l0.4-21l-5.8,0.9l0.2-4.6l17.4-2.1l-0.1,4.5l-5.8,0.5l-0.4,21L258.2,51.9z"/>
</g>
</svg>
