<?xml version="1.0" encoding="utf-8"?>
<!-- Generator: Adobe Illustrator 23.1.0, SVG Export Plug-In . SVG Version: 6.00 Build 0)  -->
<svg version="1.1" id="Layer_1" xmlns="http://www.w3.org/2000/svg" xmlns:xlink="http://www.w3.org/1999/xlink" x="0px" y="0px"
	 viewBox="0 0 557.9905 999.03" style="enable-background:new 0 0 557.9905 999.03;" xml:space="preserve">
<style type="text/css">
	.st0{fill:#02051a;}
</style>
<path class="st0" d="M557.9905,217.9209c0,0-7.678-19.3259-24.276-38.5599l-16.135,3.985l13.3391-7.125
	c-10.638-11.603-24.571-22.78-42.073-29.2329l-11.888,18.3298l6.797-20.043c-17.039-5.167-37.236-5.8159-60.814,1.5851
	l19.028,22.323l-27.389-19.4071c-12.263,4.6912-25.389,11.5231-39.409,20.9551l20.132,9.967l-26.345-5.65
	c-8.948,6.392-18.249,13.8309-27.909,22.424l16.7339,8.2841l-20.938-4.49c-14.7463,13.486-30.3131,29.6464-46.7249,48.8588
	c2.5628-24.7041,7.7943-57.5166,18.47-90.6794l-15.246,3.1489l16.927-8.22c4.733-13.9761,10.455-27.939,17.378-41.3159
	l-12.5569-1.8521l14.3149-1.4651c8.381-15.6189,18.447-30.3489,30.53-43.2549l-15.506-4.626l19.192,0.7959
	c9.927-9.959,21.151-18.703,33.842-25.7581l-8.045-3.907l11.0909,2.29c6.731-3.533,13.8391-6.627,21.397-9.157
	c0,0-19.888-6.077-45.276-5.1331l-6.968,15.0881l2.77-14.8671c-15.705,1.059-33.138,4.9559-49.111,14.5909l6.887,20.733
	l-11.405-17.828c-14.679,10.0759-27.803,25.442-36.754,48.4771l29.318-0.9121l-32.264,9.261
	c-3.998,12.5071-6.864,27.0242-8.257,43.864l20.36-9.4929l-20.87,17.041c-0.6,10.981-0.602,22.8899,0.074,35.802l16.922-7.8911
	l-16.587,13.5441c1.3477,20.3776,4.3406,43.1688,9.2774,68.6466l-0.2965,0.5374c-12.895-20.7891-28.1133-48.5886-39.8394-79.7451
	l-9.63,12.2639l7.767-17.3409c-5.056-14.059-9.354-28.7419-12.377-43.733l-10.683,6.595l9.965-10.3389
	c-3.303-17.6951-4.776-35.7681-3.59-53.699l-14.639,6.299l15.069-11.683c1.375-14.223,4.485-28.3201,9.757-42.025l-8.529,2.08
	l9.841-5.3101c2.924-7.1039,6.408-14.104,10.582-20.948c0,0-18.866,7.9661-37.562,24.998l4.047,16.369l-7.099-13.502
	c-11.273,10.911-22.1,25.167-28.2661,43.012l18.064,11.9349l-19.698-6.7449c-4.91,17.364-5.366,37.902,2.095,61.8099l21.702-19.527
	l-18.771,28.002c4.706,12.429,11.516,25.7161,20.882,39.8911l9.586-20.5481l-5.302,26.828c6.343,9.045,13.714,18.438,22.219,28.187
	l7.967-17.079l-4.213,21.322c9.7608,10.8835,20.9255,22.2015,33.6397,33.9622c-19.8798-12.7935-38.2714-23.2012-55.2748-31.5083
	l-18.817,10.2219l13.712-12.673c-11.694-5.515-22.716-10.025-33.106-13.629L145.55,224.188l16.497-15.2471
	c-16.113-5.0879-30.634-7.9351-43.724-8.9709l-20.791,26.353l11.948-26.7891c-24.709-0.4399-43.9,5.8879-58.7859,15.656
	l12.181,17.307l-16.58-14.225c-14.967,11.1331-25.176,25.791-32.104,39.926l14.808,3.0669L12.396,262
	C1.907,285.1389,0,305.8469,0,305.8469c5.203-6.037,10.759-11.444,16.578-16.335l2.081-11.1331l0.569,8.926
	c11.336-9.074,23.68-16.1489,36.657-21.5659l6.531-18.062l-1.592,16.1019c16.522-6.295,33.9659-10.032,51.5959-11.8729
	l6.778-12.6941l-3.042,12.322c15.002-1.3411,30.093-1.3479,44.82-0.436l14.018-12.552l-8.688,12.918
	c38.625,2.9794,74.3021,12.0249,98.5976,19.5646c-28.7921,7.6479-53.4515,15.9884-74.4879,24.819l-4.699,20.892l-0.507-18.6639
	c-11.853,5.168-22.504,10.4929-32.059,15.938l-5.913,26.2869l-0.61-22.4559c-14.44,8.775-26.145,17.828-35.545,26.996l6.139,33.001
	l-12.29-26.6329c-16.603,18.3051-24.481,36.9149-26.932,54.549l21.045,2.231l-21.623,3.1101
	c-1.479,18.595,2.83,35.9299,8.904,50.4519l1.679,3.854c10.506,23.1321,24.833,38.2051,24.833,38.2051
	c-1.116-7.8921-1.527-15.6331-1.375-23.234l-7.007-8.8971l7.091,5.4501c0.637-14.506,3.441-28.455,7.912-41.788l-9.292-16.8101
	l11.069,11.801c6.143-16.578,14.819-32.167,25.043-46.646l-5.089-13.46l7.27,10.403c8.871-12.172,18.803-23.533,29.188-34.015
	l-0.214-18.8149l4,15.0449c30.8298-30.1909,64.9152-52.6738,86.7048-65.5669c-0.5804,0.7427-1.1567,1.4702-1.7391,2.2205
	c0,0,1.8124-1.4801,5.1918-4.0476c93.1686,262.408,173.8209,718.4448,173.2661,723.7808l92.557-18.8621
	c2.3068-22.1851-101.9617-419.8962-246.4681-718.7507c21.118-14.2849,54.1323-34.2371,92.1492-48.6913l-11.984-9.938l16.994,8.0809
	c13.869-5.0339,28.347-9.2899,43.117-12.241l-6.3979-10.9609l10.088,10.2629c17.432-3.2129,35.221-4.5559,52.848-3.184
	l-6.075-14.9969l11.368,15.4829c13.978,1.53,27.817,4.8311,41.254,10.334l-1.975-8.7229l5.14,10.0909
	C544.4375,209.9819,551.2935,213.6,557.9905,217.9209z"/>
</svg>
